<svg version="1" xmlns="http://www.w3.org/2000/svg" width="400" height="400" viewBox="0 0 300.000000 300.000000"><path d="M111.2 34c-15.8 5.6-25.5 20.1-24.7 37 1.1 22.2 21.8 38.1 44.1 33.9 6.9-1.3 13.2-4.8 19-10.5l5.1-5.2L164 95c5 3.2 9.4 6.1 9.7 6.4.3.3 0 3.5-.7 7.2-1.9 9.7-1.5 19.7 1 27.9 1.2 3.8 2.3 7.9 2.6 9 .3 1.5-1.7 4.2-7.3 10.1-4.3 4.4-13 13.6-19.3 20.5-11.3 12.1-24.6 25.9-24.3 25.2.4-1.1-2.2-8.5-5-14.3-4.3-8.8-15.1-19.6-23.8-23.9-16.8-8.3-34.8-8.2-51.3.1-8.8 4.4-19.2 15.3-23.8 24.8-4.6 9.6-5.8 15.4-5.3 26.5.6 15 5.4 25.7 16.5 36.6 11.6 11.4 25.4 16.6 41.5 15.6 27.6-1.6 48.8-21.9 51.8-49.5.2-2 1.9-4.8 4.3-7.5 8.8-9.5 26.1-28.2 28.4-30.7 1.4-1.5 7.1-7.7 12.8-13.8l10.3-11 3.7 4.1c5.2 5.9 6.9 7.2 14.2 11.6 10.5 6.3 15.7 7.6 29.5 7.6 9.9-.1 13.2-.5 18.5-2.4 35.1-12.3 49.9-54.2 30-85-16.7-25.8-49.1-34.2-76.5-19.8-7.1 3.8-17.8 14.2-22 21.5-1.6 2.8-3.3 5.2-3.8 5.2s-12.4-7.4-18.5-11.6c-.2-.1.3-2.4 1.1-5.1 5.4-18.8-2.8-37.1-20.2-45.1-7.4-3.4-19.2-3.9-26.9-1.2zm26 8.1c5.7 2.9 10.6 8.1 13.5 14.6 9 19.5-5.6 42.2-27.3 42.4-26 .4-40.2-30.6-22.9-49.9 9.5-10.5 24.3-13.4 36.7-7.1zm107.2 34.1c23.9 7.9 37.5 33.7 30.6 57.8-4.8 16.8-19.1 29.6-37.5 33.6-3.9.9-14.1.6-18.9-.5-8.7-2-15.8-6.1-22.7-13-9.4-9.5-13.9-20.1-13.9-33.1 0-32.4 31.6-55.1 62.4-44.8zM83.5 168.5c19.2 5 33.4 23.6 33.5 43.5 0 21.1-15.4 40.1-36.2 44.4-20.8 4.4-40.8-5.5-50.4-24.9-6-12.1-5.8-27.6.3-39.9 3.1-6 11.3-14.9 16.9-18.2 10.5-6.2 24-8 35.9-4.9z"/><path d="M119.3 44.8c-3.3.5-6.4 4.9-6.1 8.6.1 1.8-.1 3.7-.5 4.3-1 1.5 4.4 13.3 6 13.3 3.1 0 .9 1.9-3.4 2.9-7.9 2-9.3 3.3-9.2 9.1.1 3.9.5 5 1.8 5.1.9.1 3 .3 4.6.4 6.5.8 15.3.8 21.5.1l6.5-.7-.4-4.7c-.4-5.7-2.1-7.9-7-8.7-4.8-.8-7.1-2.2-5.4-3.3.7-.4 2.4-3 3.7-5.7 2.2-4.2 2.4-5.7 1.9-10.8-.6-6-2.9-9.6-6.2-9.8-.9-.1-2.5-.2-3.6-.3-1.1-.1-3 0-4.2.2zm11.5 4c2 2.6 1.5 4.8-.5 2.3-1-1.1-2.7-2.8-3.8-3.6-1.9-1.6-1.9-1.6.5-1 1.4.4 3.1 1.4 3.8 2.3zM224 83.2c-2 .5-4.9 1.9-6.5 3.2-2.5 2-2.9 3-3.2 8.6-.2 3.5-.7 6.8-1.3 7.5-1.3 1.5-.1 7.7 1.6 8.8.7.4 2 3 2.9 5.7 1 3 2.7 5.7 4.1 6.7 3.4 2.2 3 3.1-1.8 4.3-8.3 2.1-13.8 4.2-15.3 5.7-1.1 1-1.5 3.6-1.5 8.8 0 8.3-.4 7.9 9.5 9.1 9.9 1.2 23.5 1.1 33.5-.2 5.2-.7 9.6-1.3 9.7-1.3v-7.6c-.2-5.3-.7-7.9-1.8-9-.9-.9-5.4-2.7-10-4.1-9.7-2.8-11.3-3.9-7.7-5.3 1.8-.7 3.1-2.4 4.4-5.8.9-2.6 2.3-5.5 3-6.3 2.5-3 3.3-6.6 2-9.1-.7-1.3-1.1-4.4-1.1-6.9.1-2.5-.3-5.5-.8-6.6-2-4.7-12.5-8-19.7-6.2zm14 3.3c3.3 1.7 5 4.3 5 7.7 0 2-.3 1.9-3.2-1.6-1.7-2.1-4.5-4.7-6.2-5.7-2.9-1.7-2.9-1.9-.8-1.9 1.3 0 3.6.7 5.2 1.5zM65.4 176.4c-6.6 2.4-7.8 3.8-8.5 10.7-.4 3.5-1 7.8-1.3 9.6-.4 2.1 0 3.8 1.3 5.5 1 1.2 2.6 4.5 3.6 7.2 1.1 2.8 2.6 5.1 3.7 5.4 3.9 1 1.4 3-6.9 5.5-5.8 1.7-9.2 3.3-10 4.7-.7 1.1-1.3 5.1-1.3 8.8 0 4.8.4 6.9 1.3 6.9.6 0 4.6.4 8.7.8 9.3 1.1 21.3 1.1 30.5.1 10.7-1.1 10.3-.8 10.4-8.1.1-8.5-1.8-10.6-11.8-13.4-8.8-2.4-10.5-3.6-7-5 1.7-.6 3-2.3 3.9-5.1.8-2.3 2.1-5.2 3.1-6.4 2.1-2.7 3.3-8.2 2-9.1-.6-.3-1.1-2.8-1.1-5.5 0-6.4-1.5-9.5-5.5-11.4-4.3-2.1-11.3-2.6-15.1-1.2zm17.3 5.2c.8 1.3 1.3 3.3 1.1 4.6-.3 2.2-.4 2.2-2-.8-.9-1.6-3.2-3.9-5.2-4.9-1.9-1-3.3-2.2-3-2.6.8-1.3 7.6 1.5 9.1 3.7zM38.8 130.7c-8.7 2.9-16 8.5-21 16-2.1 3-3.8 5.9-3.8 6.4s1.5 1.5 3.2 2.2c3.3 1.3 3.3 1.3 6-2.9 6.2-9.9 15.8-15.6 26.5-16 3.4-.2 7.9.2 10 .8 3.2.9 3.9.7 5-.8 2.1-2.9 1.2-5.7-2.2-6.6-6.9-1.9-16.4-1.6-23.7.9z"/><path d="M42.2 142.9c-4.6 1.6-6.8 3-10.7 6.6-1.8 1.7-5.5 7.3-5.5 8.3 0 .5 1.4 1.5 3 2.2 2.8 1.2 3.2 1.1 5.3-1.6 5.9-7.6 10.7-9.9 19.4-9.2 5.1.4 5.5.3 6.9-2.3 1.8-3.7 1.9-3.5-1.7-4.8-4.6-1.6-10.6-1.3-16.7.8z"/></svg>