<?xml version="1.0" encoding="utf-8"?>
<!-- Generator: Adobe Illustrator 23.0.6, SVG Export Plug-In . SVG Version: 6.00 Build 0)  -->
<svg version="1.1" id="Livello_1" xmlns="http://www.w3.org/2000/svg" xmlns:xlink="http://www.w3.org/1999/xlink" x="0px" y="0px"
	 viewBox="0 0 135.58 71.33" style="enable-background:new 0 0 135.58 71.33;" xml:space="preserve">
<style type="text/css">
	.st0{opacity:0.54;fill:#DDC399;stroke:#000000;stroke-miterlimit:10;}
	.st1{stroke:#000000;stroke-miterlimit:10;}
</style>
<ellipse class="st0" cx="73.55" cy="33.72" rx="43.03" ry="29.62"/>
<circle class="st1" cx="57.14" cy="19.71" r="1.4"/>
<g>
	<path d="M54.86,18.31h-3.73v-0.98h1.18v-2.95h-1.18v-0.91c0.18,0,0.35-0.01,0.52-0.03c0.17-0.02,0.3-0.06,0.41-0.11
		c0.13-0.06,0.23-0.14,0.29-0.24c0.06-0.1,0.1-0.23,0.11-0.38h1.24v4.63h1.15V18.31z"/>
</g>
<circle class="st1" cx="79.15" cy="24.11" r="1.4"/>
<g>
	<path d="M77.23,22.71h-4.39v-0.92c0.33-0.24,0.67-0.5,1.01-0.77c0.34-0.27,0.61-0.51,0.81-0.71c0.3-0.29,0.52-0.55,0.64-0.77
		c0.13-0.22,0.19-0.43,0.19-0.65c0-0.25-0.08-0.45-0.25-0.59c-0.16-0.14-0.4-0.21-0.71-0.21c-0.23,0-0.47,0.05-0.73,0.14
		c-0.25,0.09-0.49,0.22-0.71,0.36h-0.12v-1.24c0.18-0.08,0.44-0.15,0.79-0.23c0.35-0.08,0.69-0.12,1.04-0.12
		c0.7,0,1.23,0.15,1.6,0.44c0.37,0.29,0.55,0.71,0.55,1.25c0,0.35-0.09,0.69-0.26,1.01c-0.18,0.32-0.45,0.65-0.81,0.98
		c-0.23,0.21-0.46,0.4-0.69,0.58c-0.23,0.18-0.39,0.3-0.49,0.37h2.51V22.71z"/>
</g>
<circle class="st1" cx="99.57" cy="33.72" r="1.4"/>
<g>
	<path d="M97.1,29.7c0.12,0.1,0.22,0.23,0.29,0.37c0.07,0.14,0.11,0.33,0.11,0.56c0,0.26-0.05,0.51-0.16,0.74
		c-0.1,0.23-0.26,0.42-0.48,0.59c-0.21,0.16-0.46,0.28-0.74,0.36c-0.28,0.08-0.63,0.13-1.03,0.13c-0.46,0-0.86-0.04-1.19-0.11
		c-0.33-0.07-0.6-0.15-0.81-0.24v-1.23h0.15c0.21,0.13,0.47,0.24,0.77,0.34c0.3,0.09,0.57,0.14,0.82,0.14c0.14,0,0.3-0.01,0.47-0.04
		c0.17-0.02,0.31-0.08,0.43-0.16c0.09-0.06,0.17-0.14,0.22-0.23c0.05-0.09,0.08-0.22,0.08-0.38c0-0.16-0.04-0.29-0.11-0.38
		s-0.17-0.15-0.3-0.19c-0.12-0.04-0.27-0.06-0.44-0.07c-0.17,0-0.33-0.01-0.48-0.01h-0.31v-1h0.32c0.19,0,0.37-0.01,0.52-0.02
		c0.15-0.01,0.28-0.04,0.38-0.09c0.11-0.05,0.19-0.11,0.25-0.19c0.06-0.08,0.08-0.19,0.08-0.35c0-0.11-0.03-0.2-0.09-0.27
		c-0.06-0.07-0.13-0.12-0.22-0.16c-0.1-0.04-0.21-0.08-0.35-0.09c-0.13-0.02-0.25-0.02-0.34-0.02c-0.24,0-0.49,0.04-0.77,0.12
		c-0.28,0.08-0.54,0.2-0.8,0.35h-0.14v-1.21c0.21-0.08,0.48-0.16,0.84-0.24c0.35-0.08,0.71-0.11,1.07-0.11
		c0.35,0,0.66,0.03,0.93,0.09c0.26,0.06,0.48,0.14,0.66,0.25c0.21,0.12,0.36,0.27,0.46,0.45c0.1,0.18,0.15,0.38,0.15,0.62
		c0,0.31-0.1,0.59-0.29,0.83c-0.19,0.24-0.45,0.4-0.76,0.47v0.05c0.13,0.02,0.26,0.05,0.41,0.1C96.85,29.52,96.98,29.6,97.1,29.7z"
		/>
</g>
<circle class="st1" cx="80.56" cy="46.72" r="1.4"/>
<g>
	<path d="M78.71,44.04h-0.76v1.3h-1.38v-1.3h-2.71v-1.06l2.62-3.24h1.47v3.28h0.76V44.04z M76.57,43.02v-2.02l-1.63,2.02H76.57z"/>
</g>
<circle class="st1" cx="65.55" cy="56.33" r="1.4"/>
<g>
	<path d="M63.5,53.04c0,0.29-0.05,0.56-0.16,0.81c-0.11,0.25-0.27,0.46-0.47,0.64c-0.23,0.19-0.49,0.33-0.79,0.42
		s-0.64,0.14-1.02,0.14c-0.45,0-0.83-0.04-1.14-0.11c-0.31-0.07-0.56-0.15-0.76-0.23v-1.23h0.16c0.23,0.14,0.47,0.25,0.74,0.34
		s0.52,0.14,0.78,0.14c0.16,0,0.33-0.02,0.51-0.05c0.18-0.04,0.33-0.1,0.44-0.2c0.08-0.08,0.15-0.16,0.19-0.24
		c0.04-0.08,0.07-0.2,0.07-0.37c0-0.13-0.03-0.24-0.09-0.34c-0.06-0.09-0.13-0.17-0.23-0.23c-0.13-0.08-0.3-0.14-0.49-0.16
		c-0.19-0.03-0.36-0.04-0.52-0.04c-0.22,0-0.44,0.02-0.65,0.06c-0.21,0.04-0.39,0.08-0.54,0.11h-0.17v-3.15h3.97v1.07h-2.62v0.91
		c0.08,0,0.18-0.01,0.29-0.01s0.22-0.01,0.31-0.01c0.31,0,0.58,0.03,0.82,0.09c0.24,0.06,0.45,0.14,0.62,0.25
		c0.23,0.14,0.41,0.32,0.53,0.55C63.44,52.41,63.5,52.7,63.5,53.04z"/>
</g>
<circle class="st1" cx="52.94" cy="39.12" r="1.4"/>
<g>
	<path d="M51.01,35.82c0,0.29-0.05,0.56-0.16,0.81c-0.1,0.25-0.25,0.47-0.44,0.64c-0.2,0.19-0.44,0.33-0.7,0.42
		c-0.27,0.1-0.58,0.15-0.94,0.15c-0.33,0-0.64-0.05-0.92-0.14c-0.28-0.09-0.51-0.23-0.71-0.42c-0.23-0.22-0.4-0.49-0.52-0.83
		s-0.18-0.75-0.18-1.22c0-0.49,0.06-0.93,0.17-1.31s0.3-0.72,0.55-1.01c0.25-0.28,0.56-0.5,0.95-0.65c0.39-0.16,0.86-0.23,1.4-0.23
		c0.18,0,0.38,0.01,0.6,0.04c0.22,0.02,0.36,0.04,0.42,0.06v1.1h-0.14c-0.07-0.03-0.18-0.07-0.34-0.11
		c-0.16-0.04-0.34-0.06-0.55-0.06c-0.48,0-0.85,0.12-1.12,0.35s-0.43,0.56-0.48,0.98c0.19-0.11,0.4-0.21,0.61-0.28S48.95,34,49.2,34
		c0.22,0,0.42,0.02,0.61,0.08c0.19,0.05,0.36,0.13,0.52,0.24c0.21,0.15,0.37,0.34,0.5,0.59S51.01,35.45,51.01,35.82z M49.3,36.66
		c0.08-0.08,0.14-0.19,0.19-0.3c0.05-0.12,0.07-0.27,0.07-0.47c0-0.18-0.03-0.33-0.08-0.45s-0.12-0.21-0.22-0.28
		c-0.09-0.07-0.2-0.12-0.32-0.14c-0.12-0.03-0.25-0.04-0.38-0.04c-0.11,0-0.23,0.01-0.35,0.04s-0.23,0.06-0.33,0.09
		c0,0.02,0,0.07,0,0.12c0,0.06,0,0.13,0,0.22c0,0.31,0.03,0.56,0.09,0.76c0.06,0.2,0.14,0.35,0.25,0.46
		c0.07,0.08,0.15,0.13,0.25,0.17c0.09,0.04,0.2,0.05,0.31,0.05c0.08,0,0.17-0.02,0.27-0.06C49.15,36.79,49.23,36.74,49.3,36.66z"/>
</g>
<g>
</g>
<g>
</g>
<g>
</g>
<g>
</g>
<g>
</g>
</svg>
