<?xml version="1.0" encoding="UTF-8" standalone="no"?>
<svg
   xmlns:dc="http://purl.org/dc/elements/1.1/"
   xmlns:cc="http://creativecommons.org/ns#"
   xmlns:rdf="http://www.w3.org/1999/02/22-rdf-syntax-ns#"
   xmlns:svg="http://www.w3.org/2000/svg"
   xmlns="http://www.w3.org/2000/svg"
   viewBox="0 0 941.96674 419.68829"
   height="419.68829"
   width="941.96674"
   xml:space="preserve"
   id="svg2"
   version="1.1"><metadata
     id="metadata8"><rdf:RDF><cc:Work
         rdf:about=""><dc:format>image/svg+xml</dc:format><dc:type
           rdf:resource="http://purl.org/dc/dcmitype/StillImage" /><dc:title></dc:title></cc:Work></rdf:RDF></metadata><defs
     id="defs6" /><g
     transform="matrix(1.3333333,0,0,-1.3333333,-38.63055,693.12302)"
     id="g10"><g
       id="g4267"><path
         id="path14"
         style="fill:none;stroke:#0000ff;stroke-width:0.91655999;stroke-linecap:butt;stroke-linejoin:miter;stroke-miterlimit:10;stroke-dasharray:none;stroke-opacity:1"
         d="M 94.4668,274.968 H 252.604 l 5.683,0.672 5.621,2.933 5.683,12.648 5.622,52.856 5.621,70.269 5.683,69.598 5.621,-52.428 5.683,-77.907 5.622,-56.949 5.682,-19.676 5.622,-1.344 h 5.621 l 5.683,-0.672 h 5.622 5.682 5.622 5.682 5.622 5.622 5.682 5.622 2.933" /><path
         id="path16"
         style="fill:#0000ff;fill-opacity:1;fill-rule:nonzero;stroke:none;stroke-width:0.1"
         d="m 260.792,275.64 c 0,1.384 -1.122,2.505 -2.505,2.505 -1.384,0 -2.506,-1.121 -2.506,-2.505 0,-1.383 1.122,-2.505 2.506,-2.505 1.383,0 2.505,1.122 2.505,2.505" /><path
         id="path18"
         style="fill:none;stroke:#0000ff;stroke-width:0.91655999;stroke-linecap:butt;stroke-linejoin:miter;stroke-miterlimit:10;stroke-dasharray:none;stroke-opacity:1"
         d="m 260.792,275.64 c 0,1.384 -1.122,2.505 -2.505,2.505 -1.384,0 -2.506,-1.121 -2.506,-2.505 0,-1.383 1.122,-2.505 2.506,-2.505 1.383,0 2.505,1.122 2.505,2.505" /><path
         id="path20"
         style="fill:#0000ff;fill-opacity:1;fill-rule:nonzero;stroke:none;stroke-width:0.1"
         d="m 266.413,278.573 c 0,1.384 -1.121,2.506 -2.505,2.506 -1.383,0 -2.505,-1.122 -2.505,-2.506 0,-1.384 1.122,-2.505 2.505,-2.505 1.384,0 2.505,1.121 2.505,2.505" /><path
         id="path22"
         style="fill:none;stroke:#0000ff;stroke-width:0.91655999;stroke-linecap:butt;stroke-linejoin:miter;stroke-miterlimit:10;stroke-dasharray:none;stroke-opacity:1"
         d="m 266.413,278.573 c 0,1.384 -1.121,2.506 -2.505,2.506 -1.383,0 -2.505,-1.122 -2.505,-2.506 0,-1.384 1.122,-2.505 2.505,-2.505 1.384,0 2.505,1.121 2.505,2.505" /><path
         id="path24"
         style="fill:#0000ff;fill-opacity:1;fill-rule:nonzero;stroke:none;stroke-width:0.1"
         d="m 272.096,291.221 c 0,1.384 -1.121,2.506 -2.505,2.506 -1.384,0 -2.505,-1.122 -2.505,-2.506 0,-1.383 1.121,-2.505 2.505,-2.505 1.384,0 2.505,1.122 2.505,2.505" /><path
         id="path26"
         style="fill:none;stroke:#0000ff;stroke-width:0.91655999;stroke-linecap:butt;stroke-linejoin:miter;stroke-miterlimit:10;stroke-dasharray:none;stroke-opacity:1"
         d="m 272.096,291.221 c 0,1.384 -1.121,2.506 -2.505,2.506 -1.384,0 -2.505,-1.122 -2.505,-2.506 0,-1.383 1.121,-2.505 2.505,-2.505 1.384,0 2.505,1.122 2.505,2.505" /><path
         id="path28"
         style="fill:#0000ff;fill-opacity:1;fill-rule:nonzero;stroke:none;stroke-width:0.1"
         d="m 277.718,344.077 c 0,1.383 -1.122,2.505 -2.505,2.505 -1.384,0 -2.506,-1.122 -2.506,-2.505 0,-1.384 1.122,-2.506 2.506,-2.506 1.383,0 2.505,1.122 2.505,2.506" /><path
         id="path30"
         style="fill:none;stroke:#0000ff;stroke-width:0.91655999;stroke-linecap:butt;stroke-linejoin:miter;stroke-miterlimit:10;stroke-dasharray:none;stroke-opacity:1"
         d="m 277.718,344.077 c 0,1.383 -1.122,2.505 -2.505,2.505 -1.384,0 -2.506,-1.122 -2.506,-2.505 0,-1.384 1.122,-2.506 2.506,-2.506 1.383,0 2.505,1.122 2.505,2.506" /><path
         id="path32"
         style="fill:#0000ff;fill-opacity:1;fill-rule:nonzero;stroke:none;stroke-width:0.1"
         d="m 283.339,414.346 c 0,1.384 -1.121,2.506 -2.505,2.506 -1.384,0 -2.505,-1.122 -2.505,-2.506 0,-1.383 1.121,-2.505 2.505,-2.505 1.384,0 2.505,1.122 2.505,2.505" /><path
         id="path34"
         style="fill:none;stroke:#0000ff;stroke-width:0.91655999;stroke-linecap:butt;stroke-linejoin:miter;stroke-miterlimit:10;stroke-dasharray:none;stroke-opacity:1"
         d="m 283.339,414.346 c 0,1.384 -1.121,2.506 -2.505,2.506 -1.384,0 -2.505,-1.122 -2.505,-2.506 0,-1.383 1.121,-2.505 2.505,-2.505 1.384,0 2.505,1.122 2.505,2.505" /><path
         id="path36"
         style="fill:#0000ff;fill-opacity:1;fill-rule:nonzero;stroke:none;stroke-width:0.1"
         d="m 289.022,483.944 c 0,1.383 -1.122,2.505 -2.505,2.505 -1.384,0 -2.506,-1.122 -2.506,-2.505 0,-1.384 1.122,-2.506 2.506,-2.506 1.383,0 2.505,1.122 2.505,2.506" /><path
         id="path38"
         style="fill:none;stroke:#0000ff;stroke-width:0.91655999;stroke-linecap:butt;stroke-linejoin:miter;stroke-miterlimit:10;stroke-dasharray:none;stroke-opacity:1"
         d="m 289.022,483.944 c 0,1.383 -1.122,2.505 -2.505,2.505 -1.384,0 -2.506,-1.122 -2.506,-2.505 0,-1.384 1.122,-2.506 2.506,-2.506 1.383,0 2.505,1.122 2.505,2.506" /><path
         id="path40"
         style="fill:#0000ff;fill-opacity:1;fill-rule:nonzero;stroke:none;stroke-width:0.1"
         d="m 294.643,431.516 c 0,1.384 -1.121,2.506 -2.505,2.506 -1.383,0 -2.505,-1.122 -2.505,-2.506 0,-1.383 1.122,-2.505 2.505,-2.505 1.384,0 2.505,1.122 2.505,2.505" /><path
         id="path42"
         style="fill:none;stroke:#0000ff;stroke-width:0.91655999;stroke-linecap:butt;stroke-linejoin:miter;stroke-miterlimit:10;stroke-dasharray:none;stroke-opacity:1"
         d="m 294.643,431.516 c 0,1.384 -1.121,2.506 -2.505,2.506 -1.383,0 -2.505,-1.122 -2.505,-2.506 0,-1.383 1.122,-2.505 2.505,-2.505 1.384,0 2.505,1.122 2.505,2.505" /><path
         id="path44"
         style="fill:#0000ff;fill-opacity:1;fill-rule:nonzero;stroke:none;stroke-width:0.1"
         d="m 300.326,353.609 c 0,1.384 -1.121,2.505 -2.505,2.505 -1.383,0 -2.505,-1.121 -2.505,-2.505 0,-1.384 1.122,-2.505 2.505,-2.505 1.384,0 2.505,1.121 2.505,2.505" /><path
         id="path46"
         style="fill:none;stroke:#0000ff;stroke-width:0.91655999;stroke-linecap:butt;stroke-linejoin:miter;stroke-miterlimit:10;stroke-dasharray:none;stroke-opacity:1"
         d="m 300.326,353.609 c 0,1.384 -1.121,2.505 -2.505,2.505 -1.383,0 -2.505,-1.121 -2.505,-2.505 0,-1.384 1.122,-2.505 2.505,-2.505 1.384,0 2.505,1.121 2.505,2.505" /><path
         id="path48"
         style="fill:#0000ff;fill-opacity:1;fill-rule:nonzero;stroke:none;stroke-width:0.1"
         d="m 305.948,296.66 c 0,1.383 -1.122,2.505 -2.505,2.505 -1.384,0 -2.506,-1.122 -2.506,-2.505 0,-1.384 1.122,-2.505 2.506,-2.505 1.383,0 2.505,1.121 2.505,2.505" /><path
         id="path50"
         style="fill:none;stroke:#0000ff;stroke-width:0.91655999;stroke-linecap:butt;stroke-linejoin:miter;stroke-miterlimit:10;stroke-dasharray:none;stroke-opacity:1"
         d="m 305.948,296.66 c 0,1.383 -1.122,2.505 -2.505,2.505 -1.384,0 -2.506,-1.122 -2.506,-2.505 0,-1.384 1.122,-2.505 2.506,-2.505 1.383,0 2.505,1.121 2.505,2.505" /><path
         id="path52"
         style="fill:#0000ff;fill-opacity:1;fill-rule:nonzero;stroke:none;stroke-width:0.1"
         d="m 311.63,276.984 c 0,1.384 -1.121,2.506 -2.505,2.506 -1.384,0 -2.505,-1.122 -2.505,-2.506 0,-1.383 1.121,-2.505 2.505,-2.505 1.384,0 2.505,1.122 2.505,2.505" /><path
         id="path54"
         style="fill:none;stroke:#0000ff;stroke-width:0.91655999;stroke-linecap:butt;stroke-linejoin:miter;stroke-miterlimit:10;stroke-dasharray:none;stroke-opacity:1"
         d="m 311.63,276.984 c 0,1.384 -1.121,2.506 -2.505,2.506 -1.384,0 -2.505,-1.122 -2.505,-2.506 0,-1.383 1.121,-2.505 2.505,-2.505 1.384,0 2.505,1.122 2.505,2.505" /><path
         id="path56"
         style="fill:#0000ff;fill-opacity:1;fill-rule:nonzero;stroke:none;stroke-width:0.1"
         d="m 317.252,275.64 c 0,1.384 -1.122,2.505 -2.505,2.505 -1.384,0 -2.506,-1.121 -2.506,-2.505 0,-1.383 1.122,-2.505 2.506,-2.505 1.383,0 2.505,1.122 2.505,2.505" /><path
         id="path58"
         style="fill:none;stroke:#0000ff;stroke-width:0.91655999;stroke-linecap:butt;stroke-linejoin:miter;stroke-miterlimit:10;stroke-dasharray:none;stroke-opacity:1"
         d="m 317.252,275.64 c 0,1.384 -1.122,2.505 -2.505,2.505 -1.384,0 -2.506,-1.121 -2.506,-2.505 0,-1.383 1.122,-2.505 2.506,-2.505 1.383,0 2.505,1.122 2.505,2.505" /><path
         id="path60"
         style="fill:#0000ff;fill-opacity:1;fill-rule:nonzero;stroke:none;stroke-width:0.1"
         d="m 322.873,275.64 c 0,1.384 -1.121,2.505 -2.505,2.505 -1.383,0 -2.505,-1.121 -2.505,-2.505 0,-1.383 1.122,-2.505 2.505,-2.505 1.384,0 2.505,1.122 2.505,2.505" /><path
         id="path62"
         style="fill:none;stroke:#0000ff;stroke-width:0.91655999;stroke-linecap:butt;stroke-linejoin:miter;stroke-miterlimit:10;stroke-dasharray:none;stroke-opacity:1"
         d="m 322.873,275.64 c 0,1.384 -1.121,2.505 -2.505,2.505 -1.383,0 -2.505,-1.121 -2.505,-2.505 0,-1.383 1.122,-2.505 2.505,-2.505 1.384,0 2.505,1.122 2.505,2.505" /><path
         id="path64"
         style="fill:none;stroke:#000000;stroke-width:0.91655999;stroke-linecap:butt;stroke-linejoin:miter;stroke-miterlimit:10;stroke-dasharray:none;stroke-opacity:1"
         d="M 91.6559,274.968 H 374.079" /><path
         id="path66"
         style="fill:none;stroke:#000000;stroke-width:0.91655999;stroke-linecap:butt;stroke-linejoin:miter;stroke-miterlimit:10;stroke-dasharray:none;stroke-opacity:1"
         d="m 105.771,274.968 v -6.111" /><path
         id="path68"
         style="fill:none;stroke:#000000;stroke-width:0.91655999;stroke-linecap:butt;stroke-linejoin:miter;stroke-miterlimit:10;stroke-dasharray:none;stroke-opacity:1"
         d="m 119.886,274.968 v -6.111" /><path
         id="path70"
         style="fill:none;stroke:#000000;stroke-width:0.91655999;stroke-linecap:butt;stroke-linejoin:miter;stroke-miterlimit:10;stroke-dasharray:none;stroke-opacity:1"
         d="m 134.001,274.968 v -6.111" /><path
         id="path72"
         style="fill:none;stroke:#000000;stroke-width:0.91655999;stroke-linecap:butt;stroke-linejoin:miter;stroke-miterlimit:10;stroke-dasharray:none;stroke-opacity:1"
         d="m 162.231,274.968 v -6.111" /><path
         id="path74"
         style="fill:none;stroke:#000000;stroke-width:0.91655999;stroke-linecap:butt;stroke-linejoin:miter;stroke-miterlimit:10;stroke-dasharray:none;stroke-opacity:1"
         d="m 176.346,274.968 v -6.111" /><path
         id="path76"
         style="fill:none;stroke:#000000;stroke-width:0.91655999;stroke-linecap:butt;stroke-linejoin:miter;stroke-miterlimit:10;stroke-dasharray:none;stroke-opacity:1"
         d="m 190.522,274.968 v -6.111" /><path
         id="path78"
         style="fill:none;stroke:#000000;stroke-width:0.91655999;stroke-linecap:butt;stroke-linejoin:miter;stroke-miterlimit:10;stroke-dasharray:none;stroke-opacity:1"
         d="m 218.752,274.968 v -6.111" /><path
         id="path80"
         style="fill:none;stroke:#000000;stroke-width:0.91655999;stroke-linecap:butt;stroke-linejoin:miter;stroke-miterlimit:10;stroke-dasharray:none;stroke-opacity:1"
         d="m 232.867,274.968 v -6.111" /><path
         id="path82"
         style="fill:none;stroke:#000000;stroke-width:0.91655999;stroke-linecap:butt;stroke-linejoin:miter;stroke-miterlimit:10;stroke-dasharray:none;stroke-opacity:1"
         d="m 246.982,274.968 v -6.111" /><path
         id="path84"
         style="fill:none;stroke:#000000;stroke-width:0.91655999;stroke-linecap:butt;stroke-linejoin:miter;stroke-miterlimit:10;stroke-dasharray:none;stroke-opacity:1"
         d="m 275.213,274.968 v -6.111" /><path
         id="path86"
         style="fill:none;stroke:#000000;stroke-width:0.91655999;stroke-linecap:butt;stroke-linejoin:miter;stroke-miterlimit:10;stroke-dasharray:none;stroke-opacity:1"
         d="m 289.327,274.968 v -6.111" /><path
         id="path88"
         style="fill:none;stroke:#000000;stroke-width:0.91655999;stroke-linecap:butt;stroke-linejoin:miter;stroke-miterlimit:10;stroke-dasharray:none;stroke-opacity:1"
         d="m 303.443,274.968 v -6.111" /><path
         id="path90"
         style="fill:none;stroke:#000000;stroke-width:0.91655999;stroke-linecap:butt;stroke-linejoin:miter;stroke-miterlimit:10;stroke-dasharray:none;stroke-opacity:1"
         d="m 331.673,274.968 v -6.111" /><path
         id="path92"
         style="fill:none;stroke:#000000;stroke-width:0.91655999;stroke-linecap:butt;stroke-linejoin:miter;stroke-miterlimit:10;stroke-dasharray:none;stroke-opacity:1"
         d="m 345.788,274.968 v -6.111" /><path
         id="path94"
         style="fill:none;stroke:#000000;stroke-width:0.91655999;stroke-linecap:butt;stroke-linejoin:miter;stroke-miterlimit:10;stroke-dasharray:none;stroke-opacity:1"
         d="m 359.903,274.968 v -6.111" /><path
         id="path96"
         style="fill:none;stroke:#000000;stroke-width:0.91655999;stroke-linecap:butt;stroke-linejoin:miter;stroke-miterlimit:10;stroke-dasharray:none;stroke-opacity:1"
         d="M 91.6559,274.968 V 262.747" /><path
         id="path98"
         style="fill:none;stroke:#000000;stroke-width:0.91655999;stroke-linecap:butt;stroke-linejoin:miter;stroke-miterlimit:10;stroke-dasharray:none;stroke-opacity:1"
         d="M 148.116,274.968 V 262.747" /><path
         id="path100"
         style="fill:none;stroke:#000000;stroke-width:0.91655999;stroke-linecap:butt;stroke-linejoin:miter;stroke-miterlimit:10;stroke-dasharray:none;stroke-opacity:1"
         d="M 204.637,274.968 V 262.747" /><path
         id="path102"
         style="fill:none;stroke:#000000;stroke-width:0.91655999;stroke-linecap:butt;stroke-linejoin:miter;stroke-miterlimit:10;stroke-dasharray:none;stroke-opacity:1"
         d="M 261.097,274.968 V 262.747" /><path
         id="path104"
         style="fill:none;stroke:#000000;stroke-width:0.91655999;stroke-linecap:butt;stroke-linejoin:miter;stroke-miterlimit:10;stroke-dasharray:none;stroke-opacity:1"
         d="M 317.557,274.968 V 262.747" /><path
         id="path106"
         style="fill:none;stroke:#000000;stroke-width:0.91655999;stroke-linecap:butt;stroke-linejoin:miter;stroke-miterlimit:10;stroke-dasharray:none;stroke-opacity:1"
         d="M 374.079,274.968 V 262.747" /><g
         id="g108"><text
           id="text122"
           style="font-variant:normal;font-weight:normal;font-size:17.10910034px;font-family:Times;-inkscape-font-specification:Times-Roman;writing-mode:lr-tb;fill:#000000;fill-opacity:1;fill-rule:nonzero;stroke:none"
           transform="matrix(1,0,0,-1,87.5621,245.088)"><tspan
             id="tspan110"
             y="0"
             x="0">0</tspan><tspan
             id="tspan112"
             y="0.183594"
             x="52.1828 60.73735">50</tspan><tspan
             id="tspan114"
             y="0"
             x="104.4265 112.98105 121.5356">100</tspan><tspan
             id="tspan116"
             y="0.183594"
             x="160.948 169.50255 178.0571">150</tspan><tspan
             id="tspan118"
             y="0"
             x="217.40781 225.96236 234.51691">200</tspan><tspan
             id="tspan120"
             y="0.183594"
             x="273.86801 282.42255 290.97711">250</tspan></text>
<text
           id="text126"
           style="font-variant:normal;font-weight:normal;font-size:19.30890083px;font-family:Times;-inkscape-font-specification:Times-Roman;writing-mode:lr-tb;fill:#000000;fill-opacity:1;fill-rule:nonzero;stroke:none"
           transform="matrix(1,0,0,-1,169.8691,209.40321)"><tspan
             id="tspan124"
             y="0"
             x="0 9.6544504 18.227602 23.595476 33.249928 42.904377 48.272251 55.783413 60.610638 70.265083 76.694954 81.522179 96.544502 105.11765 110.48553 119.05868">heights of males</tspan></text>
</g><path
         id="path128"
         style="fill:none;stroke:#000000;stroke-width:0.91655999;stroke-linecap:butt;stroke-linejoin:miter;stroke-miterlimit:10;stroke-dasharray:none;stroke-opacity:1"
         d="M 91.6559,274.968 V 519.384" /><path
         id="path130"
         style="fill:none;stroke:#000000;stroke-width:0.91655999;stroke-linecap:butt;stroke-linejoin:miter;stroke-miterlimit:10;stroke-dasharray:none;stroke-opacity:1"
         d="M 91.6559,292.444 H 85.5457" /><path
         id="path132"
         style="fill:none;stroke:#000000;stroke-width:0.91655999;stroke-linecap:butt;stroke-linejoin:miter;stroke-miterlimit:10;stroke-dasharray:none;stroke-opacity:1"
         d="M 91.6559,309.858 H 85.5457" /><path
         id="path134"
         style="fill:none;stroke:#000000;stroke-width:0.91655999;stroke-linecap:butt;stroke-linejoin:miter;stroke-miterlimit:10;stroke-dasharray:none;stroke-opacity:1"
         d="M 91.6559,327.334 H 85.5457" /><path
         id="path136"
         style="fill:none;stroke:#000000;stroke-width:0.91655999;stroke-linecap:butt;stroke-linejoin:miter;stroke-miterlimit:10;stroke-dasharray:none;stroke-opacity:1"
         d="M 91.6559,362.286 H 85.5457" /><path
         id="path138"
         style="fill:none;stroke:#000000;stroke-width:0.91655999;stroke-linecap:butt;stroke-linejoin:miter;stroke-miterlimit:10;stroke-dasharray:none;stroke-opacity:1"
         d="M 91.6559,379.7 H 85.5457" /><path
         id="path140"
         style="fill:none;stroke:#000000;stroke-width:0.91655999;stroke-linecap:butt;stroke-linejoin:miter;stroke-miterlimit:10;stroke-dasharray:none;stroke-opacity:1"
         d="M 91.6559,397.176 H 85.5457" /><path
         id="path142"
         style="fill:none;stroke:#000000;stroke-width:0.91655999;stroke-linecap:butt;stroke-linejoin:miter;stroke-miterlimit:10;stroke-dasharray:none;stroke-opacity:1"
         d="M 91.6559,432.066 H 85.5457" /><path
         id="path144"
         style="fill:none;stroke:#000000;stroke-width:0.91655999;stroke-linecap:butt;stroke-linejoin:miter;stroke-miterlimit:10;stroke-dasharray:none;stroke-opacity:1"
         d="M 91.6559,449.542 H 85.5457" /><path
         id="path146"
         style="fill:none;stroke:#000000;stroke-width:0.91655999;stroke-linecap:butt;stroke-linejoin:miter;stroke-miterlimit:10;stroke-dasharray:none;stroke-opacity:1"
         d="M 91.6559,467.018 H 85.5457" /><path
         id="path148"
         style="fill:none;stroke:#000000;stroke-width:0.91655999;stroke-linecap:butt;stroke-linejoin:miter;stroke-miterlimit:10;stroke-dasharray:none;stroke-opacity:1"
         d="M 91.6559,501.908 H 85.5457" /><path
         id="path150"
         style="fill:none;stroke:#000000;stroke-width:0.91655999;stroke-linecap:butt;stroke-linejoin:miter;stroke-miterlimit:10;stroke-dasharray:none;stroke-opacity:1"
         d="M 91.6559,519.384 H 85.5457" /><path
         id="path152"
         style="fill:none;stroke:#000000;stroke-width:0.91655999;stroke-linecap:butt;stroke-linejoin:miter;stroke-miterlimit:10;stroke-dasharray:none;stroke-opacity:1"
         d="M 91.6559,274.968 H 79.4352" /><path
         id="path154"
         style="fill:none;stroke:#000000;stroke-width:0.91655999;stroke-linecap:butt;stroke-linejoin:miter;stroke-miterlimit:10;stroke-dasharray:none;stroke-opacity:1"
         d="M 91.6559,344.81 H 79.4352" /><path
         id="path156"
         style="fill:none;stroke:#000000;stroke-width:0.91655999;stroke-linecap:butt;stroke-linejoin:miter;stroke-miterlimit:10;stroke-dasharray:none;stroke-opacity:1"
         d="M 91.6559,414.652 H 79.4352" /><path
         id="path158"
         style="fill:none;stroke:#000000;stroke-width:0.91655999;stroke-linecap:butt;stroke-linejoin:miter;stroke-miterlimit:10;stroke-dasharray:none;stroke-opacity:1"
         d="M 91.6559,484.494 H 79.4352" /><g
         id="g160"><text
           id="text170"
           style="font-variant:normal;font-weight:normal;font-size:17.10910034px;font-family:Times;-inkscape-font-specification:Times-Roman;writing-mode:lr-tb;fill:#000000;fill-opacity:1;fill-rule:nonzero;stroke:none"
           transform="matrix(1,0,0,-1,65.1367,269.346)"><tspan
             id="tspan162"
             y="0"
             x="0">0</tspan><tspan
             id="tspan164"
             y="-69.719498"
             x="0">2</tspan><tspan
             id="tspan166"
             y="-139.5004"
             x="0">4</tspan><tspan
             id="tspan168"
             y="-209.34219"
             x="0.24453101">6</tspan></text>
<text
           id="text174"
           style="font-variant:normal;font-weight:normal;font-size:19.30890083px;font-family:Times;-inkscape-font-specification:Times-Roman;writing-mode:lr-tb;fill:#000000;fill-opacity:1;fill-rule:nonzero;stroke:none"
           transform="matrix(0,1,1,0,40.1453,355.564)"><tspan
             id="tspan172"
             y="0"
             x="0 9.6544504 18.227602 24.657465 33.230618 41.803768 51.458218 56.826092 65.399246 75.053696">percentage</tspan></text>
</g><path
         id="path176"
         style="fill:none;stroke:#000000;stroke-width:0.91655999;stroke-linecap:butt;stroke-linejoin:miter;stroke-miterlimit:10;stroke-dasharray:none;stroke-opacity:1"
         d="M 91.6559,519.384 V 274.968 H 374.079" /><path
         id="path178"
         style="fill:none;stroke:#0000ff;stroke-width:0.91655999;stroke-linecap:butt;stroke-linejoin:miter;stroke-miterlimit:10;stroke-dasharray:none;stroke-opacity:1"
         d="m 551.28,274.968 12.282,16.315 24.564,43.445 18.392,70.575 12.282,54.321 12.282,32.63 12.282,-32.63 18.454,-92.328 24.563,-76.013 12.221,-16.315" /><path
         id="path180"
         style="fill:#0000ff;fill-opacity:1;fill-rule:nonzero;stroke:none;stroke-width:0.1"
         d="m 566.068,291.283 c 0,1.383 -1.122,2.505 -2.506,2.505 -1.383,0 -2.505,-1.122 -2.505,-2.505 0,-1.384 1.122,-2.506 2.505,-2.506 1.384,0 2.506,1.122 2.506,2.506" /><path
         id="path182"
         style="fill:none;stroke:#0000ff;stroke-width:0.91655999;stroke-linecap:butt;stroke-linejoin:miter;stroke-miterlimit:10;stroke-dasharray:none;stroke-opacity:1"
         d="m 566.068,291.283 c 0,1.383 -1.122,2.505 -2.506,2.505 -1.383,0 -2.505,-1.122 -2.505,-2.505 0,-1.384 1.122,-2.506 2.505,-2.506 1.384,0 2.506,1.122 2.506,2.506" /><path
         id="path184"
         style="fill:#0000ff;fill-opacity:1;fill-rule:nonzero;stroke:none;stroke-width:0.1"
         d="m 590.631,334.728 c 0,1.383 -1.121,2.505 -2.505,2.505 -1.383,0 -2.505,-1.122 -2.505,-2.505 0,-1.384 1.122,-2.506 2.505,-2.506 1.384,0 2.505,1.122 2.505,2.506" /><path
         id="path186"
         style="fill:none;stroke:#0000ff;stroke-width:0.91655999;stroke-linecap:butt;stroke-linejoin:miter;stroke-miterlimit:10;stroke-dasharray:none;stroke-opacity:1"
         d="m 590.631,334.728 c 0,1.383 -1.121,2.505 -2.505,2.505 -1.383,0 -2.505,-1.122 -2.505,-2.505 0,-1.384 1.122,-2.506 2.505,-2.506 1.384,0 2.505,1.122 2.505,2.506" /><path
         id="path188"
         style="fill:#0000ff;fill-opacity:1;fill-rule:nonzero;stroke:none;stroke-width:0.1"
         d="m 609.023,405.303 c 0,1.383 -1.121,2.505 -2.505,2.505 -1.383,0 -2.505,-1.122 -2.505,-2.505 0,-1.384 1.122,-2.505 2.505,-2.505 1.384,0 2.505,1.121 2.505,2.505" /><path
         id="path190"
         style="fill:none;stroke:#0000ff;stroke-width:0.91655999;stroke-linecap:butt;stroke-linejoin:miter;stroke-miterlimit:10;stroke-dasharray:none;stroke-opacity:1"
         d="m 609.023,405.303 c 0,1.383 -1.121,2.505 -2.505,2.505 -1.383,0 -2.505,-1.122 -2.505,-2.505 0,-1.384 1.122,-2.505 2.505,-2.505 1.384,0 2.505,1.121 2.505,2.505" /><path
         id="path192"
         style="fill:none;stroke:#000000;stroke-width:0.91655999;stroke-linecap:butt;stroke-linejoin:miter;stroke-miterlimit:10;stroke-dasharray:none;stroke-opacity:1"
         d="M 453.086,274.968 H 735.448" /><path
         id="path194"
         style="fill:none;stroke:#000000;stroke-width:0.91655999;stroke-linecap:butt;stroke-linejoin:miter;stroke-miterlimit:10;stroke-dasharray:none;stroke-opacity:1"
         d="m 465.368,274.968 v -6.111" /><path
         id="path196"
         style="fill:none;stroke:#000000;stroke-width:0.91655999;stroke-linecap:butt;stroke-linejoin:miter;stroke-miterlimit:10;stroke-dasharray:none;stroke-opacity:1"
         d="m 477.65,274.968 v -6.111" /><path
         id="path198"
         style="fill:none;stroke:#000000;stroke-width:0.91655999;stroke-linecap:butt;stroke-linejoin:miter;stroke-miterlimit:10;stroke-dasharray:none;stroke-opacity:1"
         d="m 489.932,274.968 v -6.111" /><path
         id="path200"
         style="fill:none;stroke:#000000;stroke-width:0.91655999;stroke-linecap:butt;stroke-linejoin:miter;stroke-miterlimit:10;stroke-dasharray:none;stroke-opacity:1"
         d="m 514.435,274.968 v -6.111" /><path
         id="path202"
         style="fill:none;stroke:#000000;stroke-width:0.91655999;stroke-linecap:butt;stroke-linejoin:miter;stroke-miterlimit:10;stroke-dasharray:none;stroke-opacity:1"
         d="m 526.716,274.968 v -6.111" /><path
         id="path204"
         style="fill:none;stroke:#000000;stroke-width:0.91655999;stroke-linecap:butt;stroke-linejoin:miter;stroke-miterlimit:10;stroke-dasharray:none;stroke-opacity:1"
         d="m 538.998,274.968 v -6.111" /><path
         id="path206"
         style="fill:none;stroke:#000000;stroke-width:0.91655999;stroke-linecap:butt;stroke-linejoin:miter;stroke-miterlimit:10;stroke-dasharray:none;stroke-opacity:1"
         d="m 563.562,274.968 v -6.111" /><path
         id="path208"
         style="fill:none;stroke:#000000;stroke-width:0.91655999;stroke-linecap:butt;stroke-linejoin:miter;stroke-miterlimit:10;stroke-dasharray:none;stroke-opacity:1"
         d="m 575.844,274.968 v -6.111" /><path
         id="path210"
         style="fill:none;stroke:#000000;stroke-width:0.91655999;stroke-linecap:butt;stroke-linejoin:miter;stroke-miterlimit:10;stroke-dasharray:none;stroke-opacity:1"
         d="m 588.126,274.968 v -6.111" /><path
         id="path212"
         style="fill:none;stroke:#000000;stroke-width:0.91655999;stroke-linecap:butt;stroke-linejoin:miter;stroke-miterlimit:10;stroke-dasharray:none;stroke-opacity:1"
         d="M 453.086,274.968 V 262.747" /><path
         id="path214"
         style="fill:none;stroke:#000000;stroke-width:0.91655999;stroke-linecap:butt;stroke-linejoin:miter;stroke-miterlimit:10;stroke-dasharray:none;stroke-opacity:1"
         d="M 502.214,274.968 V 262.747" /><path
         id="path216"
         style="fill:none;stroke:#000000;stroke-width:0.91655999;stroke-linecap:butt;stroke-linejoin:miter;stroke-miterlimit:10;stroke-dasharray:none;stroke-opacity:1"
         d="M 551.28,274.968 V 262.747" /><path
         id="path218"
         style="fill:none;stroke:#000000;stroke-width:0.91655999;stroke-linecap:butt;stroke-linejoin:miter;stroke-miterlimit:10;stroke-dasharray:none;stroke-opacity:1"
         d="M 600.408,274.968 V 262.747" /><g
         id="g220"><text
           id="text226"
           style="font-variant:normal;font-weight:normal;font-size:17.10910034px;font-family:Times;-inkscape-font-specification:Times-Roman;writing-mode:lr-tb;fill:#000000;fill-opacity:1;fill-rule:nonzero;stroke:none"
           transform="matrix(1,0,0,-1,448.992,245.088)"><tspan
             id="tspan222"
             y="0"
             x="0 44.789059 53.343609 93.916641 102.47119">02040</tspan><tspan
             id="tspan224"
             y="0.183594"
             x="143.045 151.59955">60</tspan></text>
<text
           id="text230"
           style="font-variant:normal;font-weight:normal;font-size:19.30890083px;font-family:Times;-inkscape-font-specification:Times-Roman;writing-mode:lr-tb;fill:#000000;fill-opacity:1;fill-rule:nonzero;stroke:none"
           transform="matrix(1,0,0,-1,540.5265,209.28101)"><tspan
             id="tspan228"
             y="0"
             x="0 7.5111623 17.165611 25.738764 34.311916 43.966366 51.477528 56.304752 65.959206 72.389069 77.216293 85.789444 94.362595 100.79246">speeds of cars</tspan></text>
</g><path
         id="path232"
         style="fill:none;stroke:#000000;stroke-width:0.91655999;stroke-linecap:butt;stroke-linejoin:miter;stroke-miterlimit:10;stroke-dasharray:none;stroke-opacity:1"
         d="M 453.086,274.968 V 519.384" /><path
         id="path234"
         style="fill:none;stroke:#000000;stroke-width:0.91655999;stroke-linecap:butt;stroke-linejoin:miter;stroke-miterlimit:10;stroke-dasharray:none;stroke-opacity:1"
         d="m 453.086,285.845 h -6.11" /><path
         id="path236"
         style="fill:none;stroke:#000000;stroke-width:0.91655999;stroke-linecap:butt;stroke-linejoin:miter;stroke-miterlimit:10;stroke-dasharray:none;stroke-opacity:1"
         d="m 453.086,296.721 h -6.11" /><path
         id="path238"
         style="fill:none;stroke:#000000;stroke-width:0.91655999;stroke-linecap:butt;stroke-linejoin:miter;stroke-miterlimit:10;stroke-dasharray:none;stroke-opacity:1"
         d="m 453.086,307.536 h -6.11" /><path
         id="path240"
         style="fill:none;stroke:#000000;stroke-width:0.91655999;stroke-linecap:butt;stroke-linejoin:miter;stroke-miterlimit:10;stroke-dasharray:none;stroke-opacity:1"
         d="m 453.086,318.413 h -6.11" /><path
         id="path242"
         style="fill:none;stroke:#000000;stroke-width:0.91655999;stroke-linecap:butt;stroke-linejoin:miter;stroke-miterlimit:10;stroke-dasharray:none;stroke-opacity:1"
         d="m 453.086,340.166 h -6.11" /><path
         id="path244"
         style="fill:none;stroke:#000000;stroke-width:0.91655999;stroke-linecap:butt;stroke-linejoin:miter;stroke-miterlimit:10;stroke-dasharray:none;stroke-opacity:1"
         d="m 453.086,350.981 h -6.11" /><path
         id="path246"
         style="fill:none;stroke:#000000;stroke-width:0.91655999;stroke-linecap:butt;stroke-linejoin:miter;stroke-miterlimit:10;stroke-dasharray:none;stroke-opacity:1"
         d="m 453.086,361.858 h -6.11" /><path
         id="path248"
         style="fill:none;stroke:#000000;stroke-width:0.91655999;stroke-linecap:butt;stroke-linejoin:miter;stroke-miterlimit:10;stroke-dasharray:none;stroke-opacity:1"
         d="m 453.086,372.734 h -6.11" /><path
         id="path250"
         style="fill:none;stroke:#000000;stroke-width:0.91655999;stroke-linecap:butt;stroke-linejoin:miter;stroke-miterlimit:10;stroke-dasharray:none;stroke-opacity:1"
         d="m 453.086,394.488 h -6.11" /><path
         id="path252"
         style="fill:none;stroke:#000000;stroke-width:0.91655999;stroke-linecap:butt;stroke-linejoin:miter;stroke-miterlimit:10;stroke-dasharray:none;stroke-opacity:1"
         d="m 453.086,405.303 h -6.11" /><path
         id="path254"
         style="fill:none;stroke:#000000;stroke-width:0.91655999;stroke-linecap:butt;stroke-linejoin:miter;stroke-miterlimit:10;stroke-dasharray:none;stroke-opacity:1"
         d="m 453.086,416.179 h -6.11" /><path
         id="path256"
         style="fill:none;stroke:#000000;stroke-width:0.91655999;stroke-linecap:butt;stroke-linejoin:miter;stroke-miterlimit:10;stroke-dasharray:none;stroke-opacity:1"
         d="m 453.086,427.056 h -6.11" /><path
         id="path258"
         style="fill:none;stroke:#000000;stroke-width:0.91655999;stroke-linecap:butt;stroke-linejoin:miter;stroke-miterlimit:10;stroke-dasharray:none;stroke-opacity:1"
         d="m 453.086,448.748 h -6.11" /><path
         id="path260"
         style="fill:none;stroke:#000000;stroke-width:0.91655999;stroke-linecap:butt;stroke-linejoin:miter;stroke-miterlimit:10;stroke-dasharray:none;stroke-opacity:1"
         d="m 453.086,459.624 h -6.11" /><path
         id="path262"
         style="fill:none;stroke:#000000;stroke-width:0.91655999;stroke-linecap:butt;stroke-linejoin:miter;stroke-miterlimit:10;stroke-dasharray:none;stroke-opacity:1"
         d="m 453.086,470.501 h -6.11" /><path
         id="path264"
         style="fill:none;stroke:#000000;stroke-width:0.91655999;stroke-linecap:butt;stroke-linejoin:miter;stroke-miterlimit:10;stroke-dasharray:none;stroke-opacity:1"
         d="m 453.086,481.377 h -6.11" /><path
         id="path266"
         style="fill:none;stroke:#000000;stroke-width:0.91655999;stroke-linecap:butt;stroke-linejoin:miter;stroke-miterlimit:10;stroke-dasharray:none;stroke-opacity:1"
         d="m 453.086,503.069 h -6.11" /><path
         id="path268"
         style="fill:none;stroke:#000000;stroke-width:0.91655999;stroke-linecap:butt;stroke-linejoin:miter;stroke-miterlimit:10;stroke-dasharray:none;stroke-opacity:1"
         d="m 453.086,513.946 h -6.11" /><path
         id="path270"
         style="fill:none;stroke:#000000;stroke-width:0.91655999;stroke-linecap:butt;stroke-linejoin:miter;stroke-miterlimit:10;stroke-dasharray:none;stroke-opacity:1"
         d="M 453.086,274.968 H 440.865" /><path
         id="path272"
         style="fill:none;stroke:#000000;stroke-width:0.91655999;stroke-linecap:butt;stroke-linejoin:miter;stroke-miterlimit:10;stroke-dasharray:none;stroke-opacity:1"
         d="M 453.086,329.289 H 440.865" /><path
         id="path274"
         style="fill:none;stroke:#000000;stroke-width:0.91655999;stroke-linecap:butt;stroke-linejoin:miter;stroke-miterlimit:10;stroke-dasharray:none;stroke-opacity:1"
         d="M 453.086,383.611 H 440.865" /><path
         id="path276"
         style="fill:none;stroke:#000000;stroke-width:0.91655999;stroke-linecap:butt;stroke-linejoin:miter;stroke-miterlimit:10;stroke-dasharray:none;stroke-opacity:1"
         d="M 453.086,437.932 H 440.865" /><path
         id="path278"
         style="fill:none;stroke:#000000;stroke-width:0.91655999;stroke-linecap:butt;stroke-linejoin:miter;stroke-miterlimit:10;stroke-dasharray:none;stroke-opacity:1"
         d="M 453.086,492.254 H 440.865" /><g
         id="g280"><text
           id="text292"
           style="font-variant:normal;font-weight:normal;font-size:17.10910034px;font-family:Times;-inkscape-font-specification:Times-Roman;writing-mode:lr-tb;fill:#000000;fill-opacity:1;fill-rule:nonzero;stroke:none"
           transform="matrix(1,0,0,-1,426.567,269.346)"><tspan
             id="tspan282"
             y="0"
             x="0">0</tspan><tspan
             id="tspan284"
             y="-54.1992"
             x="1.46641">1</tspan><tspan
             id="tspan286"
             y="-108.5207"
             x="0">2</tspan><tspan
             id="tspan288"
             y="-162.90311"
             x="0.73320299">3</tspan><tspan
             id="tspan290"
             y="-217.10229"
             x="0">4</tspan></text>
</g><path
         id="path294"
         style="fill:none;stroke:#000000;stroke-width:0.91655999;stroke-linecap:butt;stroke-linejoin:miter;stroke-miterlimit:10;stroke-dasharray:none;stroke-opacity:1"
         d="M 453.086,519.384 V 274.968 h 282.362" /></g></g></svg>