<?xml version="1.0" standalone="no"?>
<!DOCTYPE svg PUBLIC "-//W3C//DTD SVG 1.1//EN"
  "http://www.w3.org/Graphics/SVG/1.1/DTD/svg11.dtd">
<svg version="1.1" xmlns="http://www.w3.org/2000/svg" xmlns:xlink="http://www.w3.org/1999/xlink" width="1920" height="1080" viewBox="-1040.888888888889 -32 1889.7777777777778 1063" id="ccdiagram"><defs><style type="text/css">@import url(&#x27;https://fonts.googleapis.com/css?family=Open+Sans:400,700|Inconsolata:400&#x27;);</style></defs><g><g style="pointer-events:none"><g><pattern id="gridPatternMinor" x="0" y="37" width="128" height="74" patternUnits="userSpaceOnUse"><path d="M 0 0 L 128 74" stroke="#eee" stroke-width="1"></path><path d="M 128 0 L 0 74" stroke="#eee" stroke-width="1"></path></pattern><polygon points="0 0, 768 444, -192 999, -960 555" fill="url(#gridPatternMinor)"></polygon></g><polygon points="-960 555, -960 565, -192 1009, -192 999" stroke-linejoin="round" stroke="#54626f" stroke-width="1" fill="#f9f9f9"></polygon><polygon points="-192 1009, 768 454, 768 444, -192 999" stroke-linejoin="round" stroke="#54626f" stroke-width="1" fill="#e2e2e2"></polygon></g><g pointer-events="auto"><g opacity="1"><g><g><polygon points="-288 500, 144 749, 144 786, -48 897, -112 897, -544 648, -544 611, -352 500" fill="#ffffff" stroke-width="2" stroke="#818181"></polygon><polygon points="-320 518, 112 768, -80 879, -512 629" fill="#e6e7e8" stroke-width="0" stroke="#818181"></polygon></g></g></g><g opacity="1"><g><g><polygon points="48 305, 480 555, 480 592, 240 731, 176 731, -256 481, -256 444, -16 305" fill="#ffffff" stroke-width="2" stroke="#818181"></polygon><polygon points="16 324, 448 574, 208 712, -224 463" fill="#e6e7e8" stroke-width="0" stroke="#818181"></polygon></g></g></g></g><g style="pointer-events:none"><g><pattern id="gridPatternMajor" x="0" y="37" width="128" height="74" patternUnits="userSpaceOnUse"><path d="M 64 0 L 128 37 64 74 0 37 z" stroke="#54626f" stroke-width="1" fill="none"></path></pattern><polygon points="0 0, 768 444, -192 999, -960 555" fill="url(#gridPatternMajor)"></polygon></g></g><g pointer-events="auto"></g><g></g><g pointer-events="auto"></g><g></g><g pointer-events="auto"><g opacity="1"><g id="31363d9c-e7e7-4e07-b978-9a92b6884782"><svg x="257" y="278" overflow="visible"><polygon points="0 0, 335 194, 271 231, -64 37" fill="#f5b720"></polygon><polygon points="0 0, 335 194, 271 231, -64 37" fill="none" stroke-width="20" stroke="#f5b720" opacity="1"></polygon><g cursor="nwse-resize"><polygon points="0 0, -19 -11, 13 -30, -83 -11, -115 44, -83 26, -64 37" fill="#f5b720"></polygon><polygon points="335 194, 354 205, 386 186, 354 242, 258 260, 290 242, 271 231" fill="#f5b720"></polygon></g></svg></g></g></g><g pointer-events="none"></g><g pointer-events="auto"><g><g cursor="cell"><line x1="-176" y1="564" x2="-48" y2="490" stroke="red" stroke-width="8" opacity="0"></line><line x1="-176" y1="564" x2="-48" y2="490" stroke="#000000" stroke-width="2" stroke-linecap="round"></line></g></g><g><g cursor="cell"><line x1="-160" y1="648" x2="-240" y2="601" stroke="red" stroke-width="8" opacity="0"></line><line x1="-160" y1="648" x2="-240" y2="601" stroke="#000000" stroke-width="2" stroke-linecap="round"></line></g></g><g><g cursor="cell"><line x1="-128" y1="833" x2="-106" y2="820" stroke="red" stroke-width="8" opacity="0"></line><line x1="-128" y1="833" x2="-106" y2="820" stroke="#000000" stroke-width="2" stroke-linecap="round"></line><polygon points="-96 814, -122 819, -108 821, -105 829, -96 814" stroke-linejoin="round" fill="#000000" stroke="#000000" stroke-width="1"></polygon></g></g><g><g cursor="cell"><line x1="-220" y1="867" x2="-197" y2="854" stroke="red" stroke-width="8" opacity="0"></line><line x1="-220" y1="867" x2="-197" y2="854" stroke="#000000" stroke-width="2" stroke-linecap="round"></line><polygon points="-188 848, -213 854, -200 856, -197 863, -188 848" stroke-linejoin="round" fill="#000000" stroke="#000000" stroke-width="1"></polygon></g></g><g><g cursor="cell"><line x1="-144" y1="823" x2="-128" y2="833" stroke="red" stroke-width="8" opacity="0"></line><line x1="-144" y1="823" x2="-128" y2="833" stroke="#000000" stroke-width="2" stroke-linecap="round"></line></g></g><g><g cursor="cell"><line x1="80" y1="712" x2="-150" y2="579" stroke="red" stroke-width="8" opacity="0"></line><line x1="80" y1="712" x2="-150" y2="579" stroke="#000000" stroke-width="2" stroke-linecap="round"></line><polygon points="-160 574, -151 588, -148 581, -134 579, -160 574" stroke-linejoin="round" fill="#000000" stroke="#000000" stroke-width="1"></polygon></g></g><g><g cursor="cell"><line x1="-48" y1="490" x2="16" y2="527" stroke="red" stroke-width="8" opacity="0"></line><line x1="-48" y1="490" x2="16" y2="527" stroke="#000000" stroke-width="2" stroke-linecap="round"></line></g></g><g><g cursor="cell"><line x1="-256" y1="759" x2="-234" y2="746" stroke="red" stroke-width="8" opacity="0"></line><line x1="-256" y1="759" x2="-234" y2="746" stroke="#000000" stroke-width="2" stroke-linecap="round"></line><polygon points="-224 740, -250 745, -236 747, -233 755, -224 740" stroke-linejoin="round" fill="#000000" stroke="#000000" stroke-width="1"></polygon></g></g><g><g cursor="cell"><line x1="16" y1="527" x2="22" y2="524" stroke="red" stroke-width="8" opacity="0"></line><line x1="16" y1="527" x2="22" y2="524" stroke="#000000" stroke-width="2" stroke-linecap="round"></line><polygon points="32 518, 6 523, 20 525, 23 533, 32 518" stroke-linejoin="round" fill="#000000" stroke="#000000" stroke-width="1"></polygon></g></g><g><g cursor="cell"><line x1="32" y1="740" x2="80" y2="712" stroke="red" stroke-width="8" opacity="0"></line><line x1="32" y1="740" x2="80" y2="712" stroke="#000000" stroke-width="2" stroke-linecap="round"></line></g></g><g><g cursor="cell"><line x1="64" y1="555" x2="134" y2="596" stroke="red" stroke-width="8" opacity="0"></line><line x1="64" y1="555" x2="134" y2="596" stroke="#000000" stroke-width="2" stroke-linecap="round"></line><polygon points="144 601, 135 586, 132 594, 118 596, 144 601" stroke-linejoin="round" fill="#000000" stroke="#000000" stroke-width="1"></polygon></g></g><g><g><g cursor="cell"><line x1="288" y1="426" x2="326" y2="403" stroke="red" stroke-width="8" opacity="0"></line><line x1="288" y1="426" x2="326" y2="403" stroke="#000000" stroke-width="2" stroke-linecap="none"></line><polygon points="336 398, 310 403, 324 405, 327 413, 336 398" stroke-linejoin="round" fill="#000000" stroke="#000000" stroke-width="1"></polygon></g><g cursor="cell"><line x1="288" y1="444" x2="288" y2="426" stroke="red" stroke-width="8" opacity="0"></line><line x1="288" y1="444" x2="288" y2="426" stroke="#000000" stroke-width="2" stroke-linecap="round"></line></g><g cursor="cell"><line x1="352" y1="481" x2="406" y2="450" stroke="red" stroke-width="8" opacity="0"></line><line x1="352" y1="481" x2="406" y2="450" stroke="#000000" stroke-width="2" stroke-linecap="none"></line><polygon points="416 444, 390 449, 404 451, 407 459, 416 444" stroke-linejoin="round" fill="#000000" stroke="#000000" stroke-width="1"></polygon></g><g cursor="cell"><line x1="449" y1="518" x2="487" y2="496" stroke="red" stroke-width="8" opacity="0"></line><line x1="449" y1="518" x2="487" y2="496" stroke="#000000" stroke-width="2" stroke-linecap="none"></line><polygon points="497 491, 471 496, 484 498, 487 505, 497 491" stroke-linejoin="round" fill="#000000" stroke="#000000" stroke-width="1"></polygon></g><g cursor="cell"><line x1="417" y1="518" x2="449" y2="518" stroke="red" stroke-width="8" opacity="0"></line><line x1="417" y1="518" x2="449" y2="518" stroke="#000000" stroke-width="2" stroke-linecap="round"></line></g><g cursor="cell"><line x1="288" y1="444" x2="417" y2="518" stroke="red" stroke-width="8" opacity="0"></line><line x1="288" y1="444" x2="417" y2="518" stroke="#000000" stroke-width="2" stroke-linecap="round"></line></g><g cursor="cell"><line x1="400" y1="527" x2="416" y2="518" stroke="red" stroke-width="8" opacity="0"></line><line x1="400" y1="527" x2="416" y2="518" stroke="#000000" stroke-width="2" stroke-linecap="round"></line></g></g></g><g><g cursor="cell"><line x1="-144" y1="823" x2="-256" y2="759" stroke="red" stroke-width="8" opacity="0"></line><line x1="-144" y1="823" x2="-256" y2="759" stroke="#000000" stroke-width="2" stroke-linecap="round"></line></g></g><g><g cursor="cell"><line x1="-240" y1="601" x2="-202" y2="579" stroke="red" stroke-width="8" opacity="0"></line><line x1="-240" y1="601" x2="-202" y2="579" stroke="#000000" stroke-width="2" stroke-linecap="round"></line><polygon points="-192 574, -218 579, -204 581, -201 588, -192 574" stroke-linejoin="round" fill="#000000" stroke="#000000" stroke-width="1"></polygon></g></g><g><g cursor="cell"><line x1="-176" y1="842" x2="-144" y2="823" stroke="red" stroke-width="8" opacity="0"></line><line x1="-176" y1="842" x2="-144" y2="823" stroke="#000000" stroke-width="2" stroke-linecap="round"></line></g></g></g><g pointer-events="auto"><g opacity="1"><g id="9a19170c-7839-462b-a865-a67918c736d2" transform="translate(0 0)"><svg x="304" y="305" height="111" width="128" fill-rule="evenodd"><path d="M64 74v37l64-37V37L64 74z" fill="#b8b8bb"></path><path d="M0 37v37l64 37V74L0 37z" fill="#d2d2d4"></path><path d="M0 37L64 0l64 37-64 37L0 37z" fill="#ececed"></path><path d="M64 73.407l62.111-35.86.514.889-62.487 36.078h-.276L.743 38.072l.514-.89L64 73.407z" fill="#83838a"></path><path d="M63.486 74h1.027v36h-1.027z" fill="#83838a"></path><path d="M128 37v37l-64 37L0 74V37L64 0l64 37zM2.054 38.185v34.63L64 108.627l61.946-35.812v-34.63L64 2.373 2.054 38.185z" fill="#000000"></path></svg></g></g><g opacity="1"><g id="0105af77-3a89-4526-adb1-15a08ea4886d" transform="translate(0 0)"><svg x="384" y="352" height="111" width="128" fill-rule="evenodd"><path d="M64 74v37l64-37V37L64 74z" fill="#b8b8bb"></path><path d="M0 37v37l64 37V74L0 37z" fill="#d2d2d4"></path><path d="M0 37L64 0l64 37-64 37L0 37z" fill="#ececed"></path><path d="M64 73.407l62.111-35.86.514.889-62.487 36.078h-.276L.743 38.072l.514-.89L64 73.407z" fill="#83838a"></path><path d="M63.486 74h1.027v36h-1.027z" fill="#83838a"></path><path d="M128 37v37l-64 37L0 74V37L64 0l64 37zM2.054 38.185v34.63L64 108.627l61.946-35.812v-34.63L64 2.373 2.054 38.185z" fill="#000000"></path></svg></g></g><g opacity="1"><g id="99877fa9-5691-4f5e-ad3f-0c25425a6bc8" transform="translate(0 0)"><svg x="465" y="398" height="111" width="128" fill-rule="evenodd"><path d="M64 74v37l64-37V37L64 74z" fill="#b8b8bb"></path><path d="M0 37v37l64 37V74L0 37z" fill="#d2d2d4"></path><path d="M0 37L64 0l64 37-64 37L0 37z" fill="#ececed"></path><path d="M64 73.407l62.111-35.86.514.889-62.487 36.078h-.276L.743 38.072l.514-.89L64 73.407z" fill="#83838a"></path><path d="M63.486 74h1.027v36h-1.027z" fill="#83838a"></path><path d="M128 37v37l-64 37L0 74V37L64 0l64 37zM2.054 38.185v34.63L64 108.627l61.946-35.812v-34.63L64 2.373 2.054 38.185z" fill="#000000"></path></svg></g></g><g opacity="1"><g id="163507e5-defe-4ab0-8060-d77ebc01a950" transform="translate(0 0)"><g><polygon points="336 490, 400 527, 336 564, 272 527" fill="#fff"></polygon><polygon points="272 564, 336 601, 336 564, 272 527" fill="#e6e6e6" stroke="#999"></polygon><polygon points="336 601, 400 564, 400 527, 336 564" fill="#ccc" stroke="#999"></polygon><polygon points="336 490, 272 527, 272 564, 336 601, 400 564, 400 527" fill="none" stroke="#000000" stroke-width="2"></polygon></g></g></g><g opacity="1"><g id="a020e2d4-fd4c-4cdb-9457-40bdc9937a37" transform="translate(0 0)"><g><polygon points="240 546, 304 583, 272 601, 208 564" fill="#4286c5"></polygon><polygon points="208 601, 272 638, 272 601, 208 564" fill="#326ca2" stroke="#5aa2d8"></polygon><polygon points="272 638, 304 620, 304 583, 272 601" fill="#26527b" stroke="#5aa2d8"></polygon><polygon points="240 546, 208 564, 208 601, 272 638, 304 620, 304 583" fill="none" stroke="#000000" stroke-width="2"></polygon></g></g></g><g opacity="1"><g id="74d563a8-6c70-4ede-b745-113d06be3267" transform="translate(0 0)"><g><polygon points="32 463, 96 500, 32 537, -32 500" fill="#fff"></polygon><polygon points="-32 537, 32 574, 32 537, -32 500" fill="#e6e6e6" stroke="#999"></polygon><polygon points="32 574, 96 537, 96 500, 32 537" fill="#ccc" stroke="#999"></polygon><polygon points="32 463, -32 500, -32 537, 32 574, 96 537, 96 500" fill="none" stroke="#000000" stroke-width="2"></polygon></g></g></g><g opacity="1"><g id="5f18939d-8a5b-48bb-a8e1-d996513cbc1e" transform="translate(0 0)"><g><polygon points="208 564, 272 601, 208 638, 144 601" fill="#fff"></polygon><polygon points="144 638, 208 675, 208 638, 144 601" fill="#e6e6e6" stroke="#999"></polygon><polygon points="208 675, 272 638, 272 601, 208 638" fill="#ccc" stroke="#999"></polygon><polygon points="208 564, 144 601, 144 638, 208 675, 272 638, 272 601" fill="none" stroke="#000000" stroke-width="2"></polygon></g></g></g><g opacity="1"><g id="7e32e981-80a4-424d-9157-5537439adbe0" transform="translate(0 0)"><g><polygon points="-128 611, -64 648, -96 666, -160 629" fill="#4286c5"></polygon><polygon points="-160 666, -96 703, -96 666, -160 629" fill="#326ca2" stroke="#5aa2d8"></polygon><polygon points="-96 703, -64 685, -64 648, -96 666" fill="#26527b" stroke="#5aa2d8"></polygon><polygon points="-128 611, -160 629, -160 666, -96 703, -64 685, -64 648" fill="none" stroke="#000000" stroke-width="2"></polygon></g></g></g><g opacity="1"><g id="f0ca491d-a0fa-49f8-924a-f87b71e53251" transform="translate(0 0)"><g><polygon points="-160 629, -96 666, -128 685, -192 648" fill="#fff"></polygon><polygon points="-192 685, -128 722, -128 685, -192 648" fill="#e6e6e6" stroke="#999"></polygon><polygon points="-128 722, -96 703, -96 666, -128 685" fill="#ccc" stroke="#999"></polygon><polygon points="-160 629, -192 648, -192 685, -128 722, -96 703, -96 666" fill="none" stroke="#000000" stroke-width="2"></polygon></g></g></g><g opacity="1"><g id="ab83c36a-290b-4338-a7f3-620089ad95db" transform="translate(0 0)"><g><polygon points="-32 703, 32 740, 0 759, -64 722" fill="#4286c5"></polygon><polygon points="-64 759, 0 796, 0 759, -64 722" fill="#326ca2" stroke="#5aa2d8"></polygon><polygon points="0 796, 32 777, 32 740, 0 759" fill="#26527b" stroke="#5aa2d8"></polygon><polygon points="-32 703, -64 722, -64 759, 0 796, 32 777, 32 740" fill="none" stroke="#000000" stroke-width="2"></polygon></g></g></g><g opacity="1"><g id="203c19df-f34f-4b55-8ad8-dbb6cc755dc7" transform="translate(0 0)"><g><polygon points="-192 648, -128 685, -192 722, -256 685" fill="#fff"></polygon><polygon points="-256 722, -192 759, -192 722, -256 685" fill="#e6e6e6" stroke="#999"></polygon><polygon points="-192 759, -128 722, -128 685, -192 722" fill="#ccc" stroke="#999"></polygon><polygon points="-192 648, -256 685, -256 722, -192 759, -128 722, -128 685" fill="none" stroke="#000000" stroke-width="2"></polygon></g></g></g><g opacity="1"><g id="238d0f47-5333-4ed8-9d89-77b59a35b52c" transform="translate(0 0)"><g><polygon points="-64 722, 0 759, -64 796, -128 759" fill="#fff"></polygon><polygon points="-128 796, -64 833, -64 796, -128 759" fill="#e6e6e6" stroke="#999"></polygon><polygon points="-64 833, 0 796, 0 759, -64 796" fill="#ccc" stroke="#999"></polygon><polygon points="-64 722, -128 759, -128 796, -64 833, 0 796, 0 759" fill="none" stroke="#000000" stroke-width="2"></polygon></g></g></g><g opacity="1"><g id="76647dca-eeaf-4f22-80f8-d08f0a24218b" transform="translate(0 0)"><svg x="-280" y="802" height="95.068" width="63" viewBox="0 0 16.669 25.153"><path d="M16.668 22.903q0 1.64-.864 2.091-.865.451-2.297-.376L3.161 18.645q-1.433-.827-2.297-2.276Q.001 14.921 0 13.28q0-.723.042-1.39.042-.666.166-1.394.124-.727.313-1.302.19-.575.51-1.039.319-.464.733-.683.414-.22 1.012-.147.598.073 1.32.49.107.06.497.58.391.52.882 1.165.491.646 1.279 1.394.788.75 1.58 1.207.793.458 1.58.618.788.161 1.28.083.49-.079.881-.147.39-.069.497-.007.722.416 1.32 1.035.598.619 1.013 1.315.414.697.734 1.531t.509 1.627q.19.793.313 1.664.124.872.166 1.586.042.713.042 1.438zM12.88 8.51q0 2.173-1.332 2.942-1.332.769-3.214-.318-1.882-1.086-3.214-3.393Q3.79 5.434 3.79 3.26q0-2.173 1.331-2.942 1.332-.77 3.214.317t3.214 3.394q1.332 2.306 1.332 4.48z" fill="#000000"></path></svg></g></g></g><g pointer-events="auto"><g opacity="1"><g id="a88a50ee-78d6-4109-b648-7a9b7f928f26" transform="translate(0 0)"><svg x="-64" y="759" overflow="visible"><g transform="scale(0.1415000000000002) matrix(0.707 0.409 -0.707 0.409 0 0)"><svg x="-195" y="-195" width="390" height="390"><svg xmlns="http://www.w3.org/2000/svg" version="1" width="390" height="390"><g><path d="M163.15 27.83L28.81 165.3c-45.39 56.21 30.89 49.67 63.59 65.86C104.13 243.15 47.44 252 59.17 264c11.73 11.99 70.93 23.1 82.68 35.09 11.73 11.99-24.01 24.71-12.28 36.7 11.73 11.99 38.86.63 43.94 28.31 3.62 19.78 48.89 8.5 71.03-7.7 11.73-12-22.44-10.87-10.71-22.86 29.17-29.83 56.33-10.84 66.31-40.73 4.93-14.77-42.94-22.77-31.19-34.76 33.75-19.71 150.4-32.54 95.05-87.89L224.75 27.83c-17.03-16.35-45.45-16.53-61.6 0zm154.31 264.98c0 6.82 50.25 11.29 50.25-1.61-7.16-20.72-44.31-19.32-50.25 1.61zM91.1 329.05c11.9 10.29 30.28-2.56 35.79-16.92-11.53-15.32-54.69.55-35.79 16.92zm220.06-22.23c-15.34 13.76 1.72 27.72 16.84 18.83 3.37-3.42-.09-15.41-16.84-18.83z"/><path fill="#fff" d="M131 238.6c3.59 2.23 57.89 13.26 71.16 15.46 4.6.97 1.34 5.71-5 8.91-14.3 3.8-83.66-24.37-66.16-24.37zM216.63 37.47l53.15 53.98c5.04 5.15 4.97 15.13 2.15 18l-26.39-21.11-5.19 31.26-22.05-11.64-35.31 22.31-11.69-47.03-18.97 32.82h-29c-11.82 0-13.21-15-2.47-25.74 18.76-20.25 40.29-40.89 51.99-52.85 11.76-12.02 32.25-11.68 43.78 0z"/></g></svg></svg></g></svg></g></g><g opacity="1"><g id="79d5867e-cbfa-4b49-b9c0-de5feb03d177" transform="translate(0 0)"><svg x="208" y="601" overflow="visible"><g transform="scale(0.28300000000000003) matrix(0.707 0.409 -0.707 0.409 0 0)"><svg x="-72.5" y="-129.5" width="145" height="259"><svg xmlns="http://www.w3.org/2000/svg" preserveAspectRatio="xMidYMid" viewBox="0 0 29.758 53.163" height="259.71" width="145.304"><defs><linearGradient gradientUnits="userSpaceOnUse" gradientTransform="matrix(.22258 0 0 .40135 -.043 -.064)" id="a" y2="85.818" x2="106.317" y1="71.07" x1="37.164"><stop offset="0%" stop-color="#919191"/><stop offset="100%" stop-color="#FFF"/></linearGradient><linearGradient gradientUnits="userSpaceOnUse" gradientTransform="matrix(.23316 0 0 .38316 -.043 -.064)" id="b" y2="109.627" x2="73.691" y1="100.282" x1="33.756"><stop offset="0%" stop-color="#900"/><stop offset="100%" stop-color="#E80000"/></linearGradient></defs><g><path d="M16.558 1.068a.618.618 0 0 0 0 .305s.33 2.164-.05 3.13l-15.68 40.8a5.82 5.82 0 0 0 3.386 7.483 5.858 5.858 0 0 0 7.534-3.309L27.426 8.678c.305-.789 2.062-2.342 2.062-2.342.076-.076.152-.152.203-.229v-.025c0-.026.026-.026.026-.051.407-1.043-2.215-3.029-5.829-4.428-3.614-1.4-6.897-1.68-7.304-.611 0 0-.026.025-.026.076z" opacity=".1"/><path d="M18.87.801a.726.726 0 0 0 0 .358s.388 2.536-.06 3.67L.435 52.646a6.821 6.821 0 0 0 3.967 8.77c3.52 1.343 7.428-.387 8.83-3.878L31.608 9.721c.358-.925 2.416-2.745 2.416-2.745.09-.09.18-.179.239-.268v-.03c0-.03.03-.03.03-.06.477-1.223-2.595-3.55-6.832-5.19-4.236-1.64-8.084-1.97-8.561-.716 0 .03 0 .06-.03.09z" fill="url(#a)" transform="matrix(.8532 0 0 .8532 0 .028)"/><path d="M24.657 22.429L11.382 56.913c-.984 2.476-3.818 3.759-6.353 2.774-2.536-.984-3.879-3.878-2.953-6.354l8.471-22.045s1.044-1.7 3.133-2.923c2.088-1.223 3.788-.955 6.085-1.969 2.327-1.014 4.892-3.967 4.892-3.967z" fill="url(#b)" transform="matrix(.8532 0 0 .8532 0 .028)"/><path d="M26.53 4.824c.226-.59-1.398-1.764-3.627-2.624-2.229-.86-4.218-1.081-4.444-.493-.225.59 1.398 1.764 3.627 2.625 2.229.86 4.218 1.08 4.444.492z" fill="#333"/><path d="M15.995 1.014s.328 2.157-.051 3.122L.368 44.82a5.81 5.81 0 0 0 3.363 7.462c.506.203 1.037.33 1.568.355a5.874 5.874 0 0 1-1.947-6.7L18.624 6.065s-2.099-1.955-2.63-5.05z" opacity=".3" fill="#fff"/><g transform="matrix(.25501 0 0 .25501 6.538 26.623)" opacity=".5" fill="#fff"><ellipse cx="17.451" cy="2.488" rx="1.785" ry="1.791"/><ellipse cx="29.052" cy="15.327" rx="2.677" ry="2.687"/><ellipse cx="11.303" cy="30.653" rx="5.057" ry="5.076"/><ellipse cx="3.173" cy="40.009" rx="2.677" ry="2.687"/><ellipse cx="13.782" cy="59.913" rx="1.785" ry="1.791"/></g></g></svg></svg></g></svg></g></g><g opacity="1"><g id="c68813c4-153c-4bf3-8ab4-a52c023a3a3f" transform="translate(0 0)"><svg x="336" y="527" overflow="visible"><g transform="scale(0.1415000000000002) matrix(0.707 0.409 -0.707 0.409 0 0)"><svg x="-212" y="-212" width="424" height="424"><svg xmlns="http://www.w3.org/2000/svg" height="424.632" width="424.916" viewBox="0 0 424.916 424.632"><g><g><path d="M191.855.565c-49.936 5.15-94.886 26.423-129.95 61.487C28.253 95.702 7.978 136.997.997 186.188c-1.33 9.639-1.33 41.629 0 51.93 5.403 40.55 22.27 79.768 47.361 109.677 34.483 41.212 81.012 67.136 135.184 75.279 13.875 2.077 43.454 2.077 57.333 0 46.78-7.063 86.332-26.336 119.15-58.244 18.115-17.616 31.41-35.645 42.375-57.827 25.256-50.687 29.414-107.6 11.715-161.108-10.636-32.238-27.502-59.74-51.597-83.839C329.614 29.151 289.4 9.041 242.121 1.731 231.654.153 202.49-.597 191.855.565zm-.833 25.842c-11.381 23.93-21.935 52.429-29.332 79.598l-3.325 12.049-37.06.247c-20.356.083-37.058 0-37.058-.247 0-1.244 6.482-13.047 11.633-21.272 18.198-28.916 44.786-56.167 73.45-75.28 7.644-5.15 8.641-5.484 15.37-6.481 3.907-.581 8.308-1.08 9.804-1.162l2.658-.083zM238.8 14.943c8.806 1.244 10.883 2.328 25.76 13.211 29.332 21.601 55.42 51.267 71.706 81.844l4.57 8.477-37.388-.165-37.47-.247-3.656-13.294c-7.978-29.08-19.858-60.49-31.82-84.337-3.916-7.735-4.58-7.32 8.298-5.49zM220.52 30.56c8.56 17.782 15.705 35.312 21.602 53.01 3.824 11.465 9.972 32.49 9.972 34.233 0 .333-17.946.663-39.881.663-25.343 0-39.882-.334-39.882-.833 0-1.994 9.474-33.152 13.13-43.207 8.558-23.595 24.68-58.993 26.756-58.993.494.008 4.232 6.82 8.303 15.127zm-87.658 2.411c-23.847 21.354-45.037 48.358-58.244 74.2l-5.732 11.3H52.933c-8.806 0-16.034-.335-16.034-.664 0-.334 2.329-4.405 5.069-8.893C63.071 74.6 94.233 47.097 130.706 30.725c4.405-1.994 8.143-3.655 8.39-3.655.247 0-2.58 2.662-6.235 5.901zm168.835 1.578c11.55 5.815 25.841 15.042 35.562 22.85 12.132 9.64 28.001 26.506 37.558 39.882 4.236 5.9 12.712 19.693 12.712 20.69 0 .252-7.227.5-16.034.5h-16.038l-3.239-6.812c-13.211-27.251-35.311-56.003-60.654-78.684-5.902-5.233-6.313-5.814-3.738-4.903 1.574.494 7.809 3.486 13.87 6.477zm94.058 100.372c4.734 9.304 11.217 32.406 13.874 49.355 2.077 13.129 2.077 43.042 0 56.167-2.575 16.45-8.723 38.72-13.627 49.108l-1.414 2.992-182.132.164c-140.838.165-182.298-.082-182.879-.832-1.244-1.578-6.564-16.203-9.222-25.59-5.398-19.109-7.06-31.657-7.06-53.926 0-22.269 1.662-34.812 7.064-53.925 2.658-9.474 7.978-24.012 9.222-25.59.664-.833 40.38-1.08 182.714-1.08h181.881zM74.032 317.218c12.296 23.847 26.67 43.125 48.523 64.89 8.142 8.061 14.542 14.708 14.29 14.708-1.495 0-23.179-11.217-29.743-15.37-26.588-16.702-49.438-39.8-65.307-65.889-2.74-4.405-4.904-8.307-4.904-8.641 0-.334 7.063-.663 15.704-.663h15.787zm84.09-2.905c2.74 11.382 8.559 29.163 14.29 43.953 4.653 11.884 17.613 38.888 23.098 48.275 3.074 5.234 3.737 4.987-10.22 3.157-8.975-1.162-8.975-1.162-17.031-6.565-26.423-17.781-52.013-43.536-69.465-69.877-5.485-8.225-15.37-25.343-15.37-26.505 0-.251 16.367-.498 36.39-.498h36.396zm96.464-7.232c0 .416-1.66 6.564-3.737 13.627-6.313 21.77-14.79 43.372-25.01 63.395-6.065 11.963-13.046 24.346-13.627 24.346-.746 0-13.71-23.93-18.28-33.65-8.976-19.195-20.687-51.684-23.678-65.889l-.581-2.657h42.456c26.419 0 42.457.33 42.457.828zm82.174 7.644c-16.368 31.82-47.942 66.386-80.595 88.408-8.06 5.403-8.06 5.403-17.032 6.565-13.957 1.83-13.294 2.077-10.302-3.157 4.817-8.142 15.705-30.242 20.357-41.377 5.567-13.047 14.374-39.3 17.118-50.851l1.912-8.06h72.865zm50.521-7.31c-1.162 2.991-10.47 17.365-15.869 24.593-7.145 9.556-24.177 27.25-33.317 34.648-10.718 8.641-24.844 17.699-37.722 24.094-6.647 3.326-12.296 6.066-12.713 6.066-.33 0 6.066-6.647 14.209-14.707 21.77-21.688 36.226-40.961 48.523-64.891l5.65-10.97h15.869c13.376.005 15.7.17 15.37 1.167z"/><path d="M44.535 175.968c.247.581 5.567 17.448 11.88 37.388l11.464 36.391h19.36l2.823-11.052a5984.629 5984.629 0 0 0 6.23-23.847l3.49-12.878 1.332 4.57c.663 2.494 3.572 13.294 6.482 23.93l5.15 19.36 9.557-.252 9.556-.247 11.88-36.976c6.565-20.357 11.963-37.059 11.963-37.224 0-.082-4.405-.164-9.72-.164h-9.804l-6.98 24.177c-6.73 23.014-7.064 24.094-7.979 21.436-.58-1.578-3.408-12.466-6.313-24.263l-5.32-21.355H90.317l-5.567 21.355c-3.074 11.797-5.983 22.767-6.482 24.345-.915 2.74-1.162 1.995-6.482-16.619-3.074-10.718-6.23-21.688-6.98-24.346l-1.414-4.735h-9.557c-7.388.009-9.547.256-9.3 1.006zM156.79 175.968c.165.581 5.486 17.448 11.799 37.388l11.55 36.391h19.195l6.23-23.678c3.409-12.96 6.483-23.184 6.73-22.603.499.915 12.38 44.868 12.38 45.865 0 .247 4.404.334 9.72.247l9.721-.247 11.88-36.976c6.483-20.357 11.88-37.059 11.88-37.224 0-.082-4.405-.164-9.72-.164h-9.804l-7.059 24.268c-6.98 24.012-7.063 24.263-7.978 21.02-.498-1.83-3.325-12.795-6.23-24.346l-5.32-20.938h-19.278l-6.148 23.678c-3.404 13.047-6.395 23.683-6.642 23.683-.248 0-2.992-8.806-6.066-19.525-3.074-10.718-6.149-21.354-6.812-23.682l-1.244-4.154h-9.557c-7.401 0-9.56.247-9.226.997zM268.96 176.05c.251.664 5.567 17.448 11.88 37.389l11.468 36.308h19.278l6.23-23.595c3.408-12.965 6.4-23.184 6.73-22.686.247.581 3.238 11.217 6.564 23.683l5.984 22.685 9.638-.251 9.557-.247 11.88-36.977c6.564-20.274 11.88-37.058 11.88-37.223 0-.083-4.405-.083-9.72 0l-9.804.247-6.981 24.012c-4.488 15.288-7.228 23.431-7.562 22.434-.334-.915-3.156-11.798-6.313-24.181l-5.732-22.681h-19.195l-6.148 23.678c-3.408 13.05-6.4 23.687-6.73 23.687-.25 0-3.407-10.554-7.063-23.514l-6.729-23.43-9.803-.248c-7.978-.169-9.639-.004-9.31.91z"/></g></g></svg></svg></g></svg></g></g></g><g pointer-events="auto"><g opacity="1"><g id="bd3de796-9e09-4353-960f-36bc12719dd1" transform="translate(0 0)"><svg x="-320" y="555" overflow="visible"><g transform="scale(1.3975424859373686) matrix(0.707 0.409 -0.707 0.409 0 0)"><circle cx="0" cy="0" fill="#000000" r="23"></circle><svg width="25" height="32" x="-12.5" y="-16" style="fill:#ffffff"><svg xmlns="http://www.w3.org/2000/svg" width="25" height="32" viewBox="0 0 25 32"><path d="M24.875 21.696c-.446 1.411-1.161 2.911-2.196 4.464-1.536 2.339-3.071 3.5-4.589 3.5-.607 0-1.429-.196-2.5-.571-1.054-.393-1.964-.571-2.696-.571-.714 0-1.571.196-2.536.589-.982.411-1.768.607-2.357.607-1.839 0-3.607-1.554-5.375-4.625C.894 22.018.001 19.035.001 16.107c0-2.732.679-4.946 2.018-6.679C3.358 7.714 5.037 6.857 7.09 6.857c.875 0 1.911.179 3.161.536 1.232.357 2.054.536 2.464.536.518 0 1.375-.196 2.554-.607 1.179-.393 2.214-.607 3.089-.607 1.429 0 2.696.393 3.804 1.161.625.429 1.25 1.036 1.857 1.786-.929.786-1.607 1.482-2.036 2.107a6.346 6.346 0 0 0-1.161 3.696c0 1.464.411 2.804 1.232 3.982s1.768 1.929 2.821 2.25zM18.161.75c0 .732-.179 1.554-.518 2.429-.357.893-.911 1.714-1.661 2.464-.643.643-1.286 1.071-1.929 1.286-.411.125-1.018.232-1.857.304.036-1.768.5-3.304 1.393-4.589S15.982.483 18.053.001c.036.161.071.286.089.393 0 .125.018.232.018.357z"/></svg></svg></g></svg></g></g><g opacity="1"><g id="2593139e-76f0-45b2-a28e-082e361648db" transform="translate(0 0)"><svg x="-192" y="685" overflow="visible"><g transform="scale(0.8944271909999159) matrix(0.707 0.409 -0.707 0.409 0 0)"><circle cx="0" cy="0" fill="#000000" r="25.5"></circle><svg width="37" height="32" x="-18.5" y="-16" style="fill:#ffffff"><svg xmlns="http://www.w3.org/2000/svg" width="37" height="32" viewBox="0 0 37 32"><path d="M11.429 16v9.143H6.858V16h4.571zm6.857-9.143v18.286h-4.571V6.857h4.571zm18.285 20.572v2.286H0V2.286h2.286v25.143h34.286zm-11.428-16v13.714h-4.571V11.429h4.571zM32 4.571v20.571h-4.571V4.571H32z"/></svg></svg></g></svg></g></g><g opacity="1"><g id="092521d8-cd9f-4ad5-9722-054eb1c642fb" transform="translate(0 0)"><svg x="-176" y="564" overflow="visible"><g transform="scale(1.118033988749895) matrix(0.707 0.409 -0.707 0.409 0 0)"><circle cx="0" cy="0" fill="#000000" r="23"></circle><svg width="32" height="32" x="-16" y="-16" style="fill:#ffffff"><svg xmlns="http://www.w3.org/2000/svg" width="32" height="32" viewBox="0 0 32 32"><path d="M10.625 27.036c0-1.571-1.732-1.786-2.946-1.786-1.268 0-2.821.268-2.821 1.857 0 1.607 1.839 1.804 3.071 1.804 1.304 0 2.696-.321 2.696-1.875zM9.571 13.554c0-1.339-.643-2.554-2.125-2.554-1.643 0-2.214 1.089-2.214 2.589 0 1.482.643 2.411 2.214 2.411C9 16 9.571 15 9.571 13.554zm4.804-5.786v3.607a12.59 12.59 0 0 1-1.411.393c.179.482.286.982.286 1.5 0 3.018-1.857 5.321-4.821 5.875-.893.179-1.411.554-1.411 1.518 0 2.732 7.214.875 7.214 5.911 0 4.089-2.768 5.429-6.482 5.429-3.054 0-6.536-1.018-6.536-4.696 0-2.143 1.304-3.375 3.25-4.018v-.071c-.821-.5-1.196-1.286-1.196-2.25 0-.911.196-2.036 1.125-2.446v-.071c-1.804-.607-2.982-3.089-2.982-4.893C1.411 10.217 4 7.77 7.304 7.77c1.107 0 2.214.286 3.179.839 1.339 0 2.661-.357 3.893-.839zM20.054 23.5H16.09c.071-.804.071-1.589.071-2.393V10.232c0-.768.018-1.536-.071-2.286h3.964c-.089.732-.071 1.482-.071 2.214v10.946c0 .804 0 1.589.071 2.393zm10.732-3.964v3.5c-.946.518-2.036.696-3.107.696-3.821 0-4.268-3.018-4.268-6.125v-6.268h.036v-.071c-.232 0-.446-.036-.661-.036-.357 0-.714.054-1.054.107V7.946h1.714V6.589c0-.536-.018-1.071-.107-1.589h4.054c-.143.982-.107 1.964-.107 2.946h3.054v3.393c-.518 0-1.036-.071-1.536-.071h-1.518v6.518c0 1.054.232 2.339 1.554 2.339.696 0 1.375-.196 1.946-.589zM20.5 2.625c0 1.339-1.036 2.589-2.411 2.589-1.411 0-2.464-1.232-2.464-2.589C15.625 1.25 16.661 0 18.089 0 19.5 0 20.5 1.286 20.5 2.625z"/></svg></svg></g></svg></g></g><g opacity="1"><g id="438717a6-ef7d-4e08-a1e2-4b42675185b5" transform="translate(0 0)"><svg x="16" y="361" overflow="visible"><g transform="scale(1.3975424859373686) matrix(0.707 0.409 -0.707 0.409 0 0)"><circle cx="0" cy="0" fill="#000000" r="23"></circle><svg width="30" height="32" x="-15" y="-16" style="fill:#ffffff"><svg xmlns="http://www.w3.org/2000/svg" width="30" height="32" viewBox="0 0 30 32"><path d="M11.429 21.714c0 1.304-.679 3.429-2.286 3.429s-2.286-2.125-2.286-3.429.679-3.429 2.286-3.429 2.286 2.125 2.286 3.429zm11.428 0c0 1.304-.679 3.429-2.286 3.429s-2.286-2.125-2.286-3.429.679-3.429 2.286-3.429 2.286 2.125 2.286 3.429zm2.857 0c0-2.732-1.661-5.143-4.571-5.143-1.179 0-2.304.214-3.482.375-.929.143-1.857.196-2.804.196s-1.875-.054-2.804-.196c-1.161-.161-2.304-.375-3.482-.375C5.66 16.571 4 18.982 4 21.714c0 5.464 5 6.304 9.357 6.304h3c4.357 0 9.357-.839 9.357-6.304zm4-3.143c0 1.982-.196 4.089-1.089 5.911-2.357 4.768-8.839 5.232-13.482 5.232-4.714 0-11.589-.411-14.036-5.232C.196 22.678 0 20.553 0 18.571 0 15.964.714 13.5 2.429 11.5a9.822 9.822 0 0 1-.482-3.036c0-1.339.304-2.679.911-3.893 2.821 0 4.625 1.232 6.768 2.911a23.863 23.863 0 0 1 5.518-.625c1.679 0 3.375.179 5 .571 2.125-1.661 3.929-2.857 6.714-2.857a8.717 8.717 0 0 1 .911 3.893 9.515 9.515 0 0 1-.482 3c1.714 2.018 2.429 4.5 2.429 7.107z"/></svg></svg></g></svg></g></g><g opacity="1"><g id="f298ccf2-c014-4e96-812c-27c27b77104e" transform="translate(0 0)"><svg x="-176" y="842" overflow="visible"><g transform="scale(0.7155417527999328) matrix(0.707 0.409 -0.707 0.409 0 0)"><circle cx="0" cy="0" fill="#000000" r="23"></circle><svg width="27" height="32" x="-13.5" y="-16" style="fill:#000000"><svg xmlns="http://www.w3.org/2000/svg" width="27" height="32" viewBox="0 0 27 32"><path d="M27.429 16c0 7.571-6.143 13.714-13.714 13.714S.001 23.571.001 16 6.144 2.286 13.715 2.286 27.429 8.429 27.429 16z"/></svg></svg></g></svg></g></g><g opacity="1"><g id="4a644088-8b07-407c-964c-59dbd3c943ac" transform="translate(0 0)"><svg x="32" y="500" overflow="visible"><g transform="scale(1.3975424859373686) matrix(0.707 0.409 -0.707 0.409 0 0)"><circle cx="0" cy="0" fill="#ffffff" r="23"></circle><svg width="27" height="32" x="-13.5" y="-16" style="fill:#000000"><svg xmlns="http://www.w3.org/2000/svg" width="27" height="32" viewBox="0 0 27 32"><path d="M9.268 21.429c.036-.054.018-.161-.054-.232-.089-.071-.196-.089-.25-.036-.036.054-.018.161.054.232.089.071.196.089.25.036zm-.5-.733c-.054-.071-.143-.107-.214-.071-.054.036-.054.143 0 .214.071.089.161.125.214.089.054-.036.054-.143 0-.232zm-.732-.714c.018-.036-.018-.107-.089-.143-.054-.018-.125-.018-.143.036-.036.054 0 .107.071.143.071.018.143.018.161-.036zm.375.411c.036-.036.036-.125-.036-.179-.054-.071-.143-.089-.179-.054-.054.054-.036.125.018.196.054.054.143.089.196.036zm1.535 1.339c.018-.071-.054-.161-.161-.196s-.196 0-.232.071c-.018.071.054.161.161.196s.196 0 .232-.071zm.75.054c0-.071-.089-.143-.214-.143-.107 0-.179.071-.179.143s.089.143.196.143.196-.071.196-.143zm.697-.125c-.018-.071-.125-.107-.232-.089s-.179.089-.161.161.107.125.214.107.179-.107.179-.179zM22.857 16c0-5.054-4.089-9.143-9.143-9.143S4.571 10.946 4.571 16c0 4.036 2.625 7.464 6.25 8.679.464.089.625-.196.625-.446 0-.214 0-.929-.018-1.696 0 0-2.536.554-3.071-1.089 0 0-.411-1.054-1.018-1.321 0 0-.821-.571.071-.571 0 0 .893.071 1.393.946.804 1.411 2.143 1 2.661.768.089-.589.321-1 .589-1.232-2.036-.232-4.179-1.018-4.179-4.518 0-1 .357-1.804.946-2.446-.089-.232-.411-1.161.089-2.429.768-.232 2.518.946 2.518.946.732-.214 1.5-.304 2.286-.304s1.554.089 2.286.304c0 0 1.75-1.179 2.518-.946.5 1.268.179 2.196.089 2.429.589.643.946 1.446.946 2.446 0 3.518-2.143 4.286-4.179 4.518.321.286.625.839.625 1.696 0 1.214-.018 2.196-.018 2.5 0 .25.161.536.625.446 3.625-1.214 6.25-4.643 6.25-8.679zm4.572-8.571v17.143a5.145 5.145 0 0 1-5.143 5.143H5.143A5.145 5.145 0 0 1 0 24.572V7.429a5.145 5.145 0 0 1 5.143-5.143h17.143a5.145 5.145 0 0 1 5.143 5.143z"/></svg></svg></g></svg></g></g><g opacity="1"><g id="c6a911f7-b839-44b2-86bf-c1e7ee112a41" transform="translate(0 0)"><svg x="368" y="342" overflow="visible"><g transform="scale(1.3975424859373686) matrix(0.707 0.409 -0.707 0.409 0 0)"><circle cx="0" cy="0" fill="#e6e7e8" r="23"></circle><svg width="32" height="32" x="-16" y="-16" style="fill:#000000"><svg xmlns="http://www.w3.org/2000/svg" width="32" height="32" viewBox="0 0 32 32"><path d="M16 1.143C7.804 1.143 1.143 7.804 1.143 16S7.804 30.857 16 30.857 30.857 24.196 30.857 16 24.196 1.143 16 1.143zM16 0c8.839 0 16 7.161 16 16s-7.161 16-16 16S0 24.839 0 16 7.161 0 16 0zM8.857 14.857c.161 0 .286.125.286.286v8.571a.282.282 0 0 1-.286.286h-.571A.282.282 0 0 1 8 23.714v-8.571c0-.161.125-.286.286-.286h.571zM16 16a2.279 2.279 0 0 1 2.286 2.286c0 .839-.464 1.571-1.143 1.964v2.036c0 .321-.25.571-.571.571h-1.143a.564.564 0 0 1-.571-.571V20.25a2.274 2.274 0 0 1-1.143-1.964A2.279 2.279 0 0 1 16.001 16zm0-13.714c7.571 0 13.714 6.143 13.714 13.714S23.571 29.714 16 29.714 2.286 23.571 2.286 16 8.429 2.286 16 2.286zm-6.286 8.571v1.714c0 .321.25.571.571.571h1.143c.321 0 .571-.25.571-.571v-1.714c0-2.214 1.786-4 4-4s4 1.786 4 4v1.714c0 .321.25.571.571.571h1.143c.321 0 .571-.25.571-.571v-1.714c0-3.464-2.821-6.286-6.286-6.286s-6.286 2.821-6.286 6.286zM25.143 24v-9.143c0-.625-.518-1.143-1.143-1.143H8c-.625 0-1.143.518-1.143 1.143V24c0 .625.518 1.143 1.143 1.143h16c.625 0 1.143-.518 1.143-1.143z"/></svg></svg></g></svg></g></g><g opacity="1"><g id="2f98f3a7-26f0-4c56-9be1-bf6df347f9b6" transform="translate(0 0)"><svg x="448" y="389" overflow="visible"><g transform="scale(1.3975424859373686) matrix(0.707 0.409 -0.707 0.409 0 0)"><circle cx="0" cy="0" fill="#e6e7e8" r="23"></circle><svg width="32" height="32" x="-16" y="-16" style="fill:#000000"><svg xmlns="http://www.w3.org/2000/svg" width="32" height="32" viewBox="0 0 32 32"><path d="M16 1.143C7.804 1.143 1.143 7.804 1.143 16S7.804 30.857 16 30.857 30.857 24.196 30.857 16 24.196 1.143 16 1.143zM16 0c8.839 0 16 7.161 16 16s-7.161 16-16 16S0 24.839 0 16 7.161 0 16 0zM8.857 14.857c.161 0 .286.125.286.286v8.571a.282.282 0 0 1-.286.286h-.571A.282.282 0 0 1 8 23.714v-8.571c0-.161.125-.286.286-.286h.571zM16 16a2.279 2.279 0 0 1 2.286 2.286c0 .839-.464 1.571-1.143 1.964v2.036c0 .321-.25.571-.571.571h-1.143a.564.564 0 0 1-.571-.571V20.25a2.274 2.274 0 0 1-1.143-1.964A2.279 2.279 0 0 1 16.001 16zm0-13.714c7.571 0 13.714 6.143 13.714 13.714S23.571 29.714 16 29.714 2.286 23.571 2.286 16 8.429 2.286 16 2.286zm-6.286 8.571v1.714c0 .321.25.571.571.571h1.143c.321 0 .571-.25.571-.571v-1.714c0-2.214 1.786-4 4-4s4 1.786 4 4v1.714c0 .321.25.571.571.571h1.143c.321 0 .571-.25.571-.571v-1.714c0-3.464-2.821-6.286-6.286-6.286s-6.286 2.821-6.286 6.286zM25.143 24v-9.143c0-.625-.518-1.143-1.143-1.143H8c-.625 0-1.143.518-1.143 1.143V24c0 .625.518 1.143 1.143 1.143h16c.625 0 1.143-.518 1.143-1.143z"/></svg></svg></g></svg></g></g><g opacity="1"><g id="4c465aa3-21d7-4835-99cf-ce68dcd63821" transform="translate(0 0)"><svg x="528" y="435" overflow="visible"><g transform="scale(1.3975424859373686) matrix(0.707 0.409 -0.707 0.409 0 0)"><circle cx="0" cy="0" fill="#e6e7e8" r="23"></circle><svg width="32" height="32" x="-16" y="-16" style="fill:#000000"><svg xmlns="http://www.w3.org/2000/svg" width="32" height="32" viewBox="0 0 32 32"><path d="M16 1.143C7.804 1.143 1.143 7.804 1.143 16S7.804 30.857 16 30.857 30.857 24.196 30.857 16 24.196 1.143 16 1.143zM16 0c8.839 0 16 7.161 16 16s-7.161 16-16 16S0 24.839 0 16 7.161 0 16 0zM8.857 14.857c.161 0 .286.125.286.286v8.571a.282.282 0 0 1-.286.286h-.571A.282.282 0 0 1 8 23.714v-8.571c0-.161.125-.286.286-.286h.571zM16 16a2.279 2.279 0 0 1 2.286 2.286c0 .839-.464 1.571-1.143 1.964v2.036c0 .321-.25.571-.571.571h-1.143a.564.564 0 0 1-.571-.571V20.25a2.274 2.274 0 0 1-1.143-1.964A2.279 2.279 0 0 1 16.001 16zm0-13.714c7.571 0 13.714 6.143 13.714 13.714S23.571 29.714 16 29.714 2.286 23.571 2.286 16 8.429 2.286 16 2.286zm-6.286 8.571v1.714c0 .321.25.571.571.571h1.143c.321 0 .571-.25.571-.571v-1.714c0-2.214 1.786-4 4-4s4 1.786 4 4v1.714c0 .321.25.571.571.571h1.143c.321 0 .571-.25.571-.571v-1.714c0-3.464-2.821-6.286-6.286-6.286s-6.286 2.821-6.286 6.286zM25.143 24v-9.143c0-.625-.518-1.143-1.143-1.143H8c-.625 0-1.143.518-1.143 1.143V24c0 .625.518 1.143 1.143 1.143h16c.625 0 1.143-.518 1.143-1.143z"/></svg></svg></g></svg></g></g><g opacity="1"><g id="6bf03224-1015-4c4d-b323-aa775439b5a9" transform="translate(0 0)"><svg x="480" y="296" overflow="visible"><g transform=" "><svg width="100" height="100" x="-50" y="-50" style="fill:#ffffff"><svg data-name="Layer 1" xmlns="http://www.w3.org/2000/svg" width="100" height="100" viewBox="0 0 100 100"><path d="M70.19 45c5.44 0 9.23 3.42 9.23 8.29v10.57h-4.78v-7.18h-1.31v7.18H66c-.48-5.36-4.82-9-10.91-9h-4.21v-2.92c4.66-.42 8.38-2.21 8.79-6.95h.44zM39.9 45h.45c.41 4.74 4.13 6.53 8.78 6.95v2.91H45c-6.08 0-10.44 3.65-10.91 9H26.9v-7.17h-1.3v7.17h-5V53.27c0-4.89 3.79-8.29 9.23-8.29z" fill="#7d7c7c"/><path d="M55.05 59.31c5.44 0 9.23 3.42 9.23 8.29v10.59h-4.79V71h-1.3v7.17H42V71h-1.26v7.17h-5V67.6c0-4.87 3.79-8.29 9.23-8.29zM34.85 24.37l8 5.67v2.47a8.07 8.07 0 0 1-8 8.16c-4.39 0-8-3.65-8-8.53V30zM65.14 24.37l8 5.67v2.47a8.07 8.07 0 0 1-8 8.16c-4.39 0-8-3.65-8-8.53V30zM50 35.52l7.07 5v2.19A7.16 7.16 0 0 1 50 50a7.23 7.23 0 0 1-7.05-7.56v-1.97z" fill="#7d7c7c"/><path d="M65.15 21.89a8.15 8.15 0 1 1-8 8.14 8.07 8.07 0 0 1 8-8.14zM50 33a7.23 7.23 0 1 1-7.06 7.23A7.15 7.15 0 0 1 50 33zM70.19 42.49c5.44 0 9.23 3.42 9.23 8.3v10.59h-4.78V54.2h-1.31v7.18H66c-.48-5.36-4.82-9-10.91-9h-4.21v-.91a9.79 9.79 0 0 0 8.79-8.95h.44zM39.9 42.5h.45a9.79 9.79 0 0 0 8.78 8.95v.91H45c-6.08 0-10.44 3.65-10.91 9H26.9v-7.15h-1.3v7.17h-5V50.79c0-4.89 3.79-8.29 9.23-8.29z" fill="#d2d3d3"/><path d="M55.05 56.83c5.44 0 9.23 3.42 9.23 8.29v10.59h-4.79v-7.17h-1.3v7.17H42v-7.17h-1.26v7.17h-5V65.12c0-4.88 3.79-8.29 9.23-8.29zM34.85 21.89a8.15 8.15 0 1 1-8 8.14 8.08 8.08 0 0 1 8-8.14z" fill="#d2d3d3"/></svg></svg></g></svg></g></g><g opacity="1"><g id="23bde62d-2740-4cd7-bde6-f4a64ce06f89" transform="translate(0 0)"><svg x="640" y="389" overflow="visible"><g transform=" "><svg width="100" height="100" x="-50" y="-50" style="fill:#ffffff"><svg data-name="Layer 1" xmlns="http://www.w3.org/2000/svg" width="100" height="100" viewBox="0 0 100 100"><path d="M70.19 45c5.44 0 9.23 3.42 9.23 8.29v10.57h-4.78v-7.18h-1.31v7.18H66c-.48-5.36-4.82-9-10.91-9h-4.21v-2.92c4.66-.42 8.38-2.21 8.79-6.95h.44zM39.9 45h.45c.41 4.74 4.13 6.53 8.78 6.95v2.91H45c-6.08 0-10.44 3.65-10.91 9H26.9v-7.17h-1.3v7.17h-5V53.27c0-4.89 3.79-8.29 9.23-8.29z" fill="#7d7c7c"/><path d="M55.05 59.31c5.44 0 9.23 3.42 9.23 8.29v10.59h-4.79V71h-1.3v7.17H42V71h-1.26v7.17h-5V67.6c0-4.87 3.79-8.29 9.23-8.29zM34.85 24.37l8 5.67v2.47a8.07 8.07 0 0 1-8 8.16c-4.39 0-8-3.65-8-8.53V30zM65.14 24.37l8 5.67v2.47a8.07 8.07 0 0 1-8 8.16c-4.39 0-8-3.65-8-8.53V30zM50 35.52l7.07 5v2.19A7.16 7.16 0 0 1 50 50a7.23 7.23 0 0 1-7.05-7.56v-1.97z" fill="#7d7c7c"/><path d="M65.15 21.89a8.15 8.15 0 1 1-8 8.14 8.07 8.07 0 0 1 8-8.14zM50 33a7.23 7.23 0 1 1-7.06 7.23A7.15 7.15 0 0 1 50 33zM70.19 42.49c5.44 0 9.23 3.42 9.23 8.3v10.59h-4.78V54.2h-1.31v7.18H66c-.48-5.36-4.82-9-10.91-9h-4.21v-.91a9.79 9.79 0 0 0 8.79-8.95h.44zM39.9 42.5h.45a9.79 9.79 0 0 0 8.78 8.95v.91H45c-6.08 0-10.44 3.65-10.91 9H26.9v-7.15h-1.3v7.17h-5V50.79c0-4.89 3.79-8.29 9.23-8.29z" fill="#d2d3d3"/><path d="M55.05 56.83c5.44 0 9.23 3.42 9.23 8.29v10.59h-4.79v-7.17h-1.3v7.17H42v-7.17h-1.26v7.17h-5V65.12c0-4.88 3.79-8.29 9.23-8.29zM34.85 21.89a8.15 8.15 0 1 1-8 8.14 8.08 8.08 0 0 1 8-8.14z" fill="#d2d3d3"/></svg></svg></g></svg></g></g><g opacity="1"><g id="84216f65-c325-4a20-98b1-76def722c580" transform="translate(0 0)"><svg x="544" y="352" overflow="visible"><g transform=" "><svg width="100" height="100" x="-50" y="-50" style="fill:#ffffff"><svg data-name="Layer 1" xmlns="http://www.w3.org/2000/svg" width="100" height="100" viewBox="0 0 100 100"><path d="M70.19 45c5.44 0 9.23 3.42 9.23 8.29v10.57h-4.78v-7.18h-1.31v7.18H66c-.48-5.36-4.82-9-10.91-9h-4.21v-2.92c4.66-.42 8.38-2.21 8.79-6.95h.44zM39.9 45h.45c.41 4.74 4.13 6.53 8.78 6.95v2.91H45c-6.08 0-10.44 3.65-10.91 9H26.9v-7.17h-1.3v7.17h-5V53.27c0-4.89 3.79-8.29 9.23-8.29z" fill="#7d7c7c"/><path d="M55.05 59.31c5.44 0 9.23 3.42 9.23 8.29v10.59h-4.79V71h-1.3v7.17H42V71h-1.26v7.17h-5V67.6c0-4.87 3.79-8.29 9.23-8.29zM34.85 24.37l8 5.67v2.47a8.07 8.07 0 0 1-8 8.16c-4.39 0-8-3.65-8-8.53V30zM65.14 24.37l8 5.67v2.47a8.07 8.07 0 0 1-8 8.16c-4.39 0-8-3.65-8-8.53V30zM50 35.52l7.07 5v2.19A7.16 7.16 0 0 1 50 50a7.23 7.23 0 0 1-7.05-7.56v-1.97z" fill="#7d7c7c"/><path d="M65.15 21.89a8.15 8.15 0 1 1-8 8.14 8.07 8.07 0 0 1 8-8.14zM50 33a7.23 7.23 0 1 1-7.06 7.23A7.15 7.15 0 0 1 50 33zM70.19 42.49c5.44 0 9.23 3.42 9.23 8.3v10.59h-4.78V54.2h-1.31v7.18H66c-.48-5.36-4.82-9-10.91-9h-4.21v-.91a9.79 9.79 0 0 0 8.79-8.95h.44zM39.9 42.5h.45a9.79 9.79 0 0 0 8.78 8.95v.91H45c-6.08 0-10.44 3.65-10.91 9H26.9v-7.15h-1.3v7.17h-5V50.79c0-4.89 3.79-8.29 9.23-8.29z" fill="#d2d3d3"/><path d="M55.05 56.83c5.44 0 9.23 3.42 9.23 8.29v10.59h-4.79v-7.17h-1.3v7.17H42v-7.17h-1.26v7.17h-5V65.12c0-4.88 3.79-8.29 9.23-8.29zM34.85 21.89a8.15 8.15 0 1 1-8 8.14 8.08 8.08 0 0 1 8-8.14z" fill="#d2d3d3"/></svg></svg></g></svg></g></g></g><g pointer-events="auto"><g opacity="1"><g id="22c4448a-db27-45cb-b181-6790f91a3e19"><svg x="-276" y="867" overflow="visible"><text stroke="#ffffff" stroke-width="4" font-family="Open Sans" y="36.5" font-size="25pt" fill="#f5b720" font-weight="bold" transform="matrix(0.707 0.409 -0.707 0.409 0 0)" xml:space="preserve"><tspan x="8" dy="0">Me</tspan></text><text font-family="Open Sans" y="36.5" font-size="25pt" fill="#f5b720" font-weight="bold" transform="matrix(0.707 0.409 -0.707 0.409 0 0)" xml:space="preserve"><tspan x="8" dy="0">Me</tspan></text></svg></g></g><g opacity="1"><g id="ee5c837b-4026-46c4-bc92-127ab96ccbcf" transform="translate(0 0)"><svg x="-832" y="500" overflow="visible"><text stroke="#ffffff" stroke-width="4" font-family="Open Sans" y="36.5" font-size="25pt" fill="#ffc107" font-weight="bold" transform="matrix(0.707 0.409 -0.707 0.409 0 0)" xml:space="preserve"><tspan x="8" dy="0">Gabriele Baldassarre</tspan></text><text font-family="Open Sans" y="36.5" font-size="25pt" fill="#ffc107" font-weight="bold" transform="matrix(0.707 0.409 -0.707 0.409 0 0)" xml:space="preserve"><tspan x="8" dy="0">Gabriele Baldassarre</tspan></text></svg></g></g><g opacity="1"><g id="a42fbe97-9f29-462c-b0ba-1f9db41f0700" transform="translate(0 0)"><svg x="-864" y="518" overflow="visible"><text stroke="#ffffff" stroke-width="4" font-family="Open Sans" y="44.48" font-size="32pt" fill="#ff9800" font-weight="bold" transform="matrix(0.707 0.409 -0.707 0.409 0 0)" xml:space="preserve"><tspan x="8" dy="0">Social Network Analysis</tspan></text><text font-family="Open Sans" y="44.48" font-size="32pt" fill="#ff9800" font-weight="bold" transform="matrix(0.707 0.409 -0.707 0.409 0 0)" xml:space="preserve"><tspan x="8" dy="0">Social Network Analysis</tspan></text></svg></g></g><g opacity="1"><g id="db3d2518-8ad3-4e6f-aedc-6a3d4f3e2e42" transform="translate(0 0)"><svg x="-896" y="537" overflow="visible"><text stroke="#ffffff" stroke-width="4" font-family="Open Sans" y="36.5" font-size="25pt" fill="#ffc107" font-weight="bold" transform="matrix(0.707 0.409 -0.707 0.409 0 0)" xml:space="preserve"><tspan x="8" dy="0">Architettura</tspan></text><text font-family="Open Sans" y="36.5" font-size="25pt" fill="#ffc107" font-weight="bold" transform="matrix(0.707 0.409 -0.707 0.409 0 0)" xml:space="preserve"><tspan x="8" dy="0">Architettura</tspan></text></svg></g></g><g opacity="1"><g id="43ccdad5-e048-4524-aaed-c507acf06d1c"><svg x="-64" y="833" overflow="visible"><text stroke="#ffffff" stroke-width="4" font-family="Open Sans" y="26.24" font-size="16pt" fill="#ffc107" font-weight="bold" transform="matrix(0.707 -0.409 0.707 0.409 0 0)" xml:space="preserve"><tspan x="8" dy="0">Inkscape</tspan></text><text font-family="Open Sans" y="26.24" font-size="16pt" fill="#ffc107" font-weight="bold" transform="matrix(0.707 -0.409 0.707 0.409 0 0)" xml:space="preserve"><tspan x="8" dy="0">Inkscape</tspan></text></svg></g></g><g opacity="1"><g id="c09d9d1b-dff1-4461-9ff0-e8c7ee444398"><svg x="-192" y="759" overflow="visible"><text stroke="#ffffff" stroke-width="4" font-family="Open Sans" y="26.24" font-size="16pt" fill="#ffc107" font-weight="bold" transform="matrix(0.707 -0.409 0.707 0.409 0 0)" xml:space="preserve"><tspan x="8" dy="0">RStudio</tspan></text><text font-family="Open Sans" y="26.24" font-size="16pt" fill="#ffc107" font-weight="bold" transform="matrix(0.707 -0.409 0.707 0.409 0 0)" xml:space="preserve"><tspan x="8" dy="0">RStudio</tspan></text></svg></g></g><g opacity="1"><g id="30c5b2af-eab5-4611-9793-c93277fbe151" transform="translate(0 0)"><svg x="-128" y="611" overflow="visible"><text stroke="#000000" stroke-width="2" font-family="Open Sans" y="30.799999999999997" font-size="20pt" fill="#ffffff" font-weight="bold" transform="matrix(0.707 0.409 -0.707 0.409 0 0)" xml:space="preserve"><tspan x="8" dy="0">.Md</tspan></text><text font-family="Open Sans" y="30.799999999999997" font-size="20pt" fill="#ffffff" font-weight="bold" transform="matrix(0.707 0.409 -0.707 0.409 0 0)" xml:space="preserve"><tspan x="8" dy="0">.Md</tspan></text></svg></g></g><g opacity="1"><g id="4160ea64-e038-426e-97eb-9ad7b74e0ce2" transform="translate(0 0)"><svg x="-159" y="628" overflow="visible"><text stroke="#ffffff" stroke-width="4" font-family="Open Sans" y="30.799999999999997" font-size="20pt" fill="#000000" font-weight="bold" transform="matrix(0.707 0.409 -0.707 0.409 0 0)" xml:space="preserve"><tspan x="8" dy="0">knitr</tspan></text><text font-family="Open Sans" y="30.799999999999997" font-size="20pt" fill="#000000" font-weight="bold" transform="matrix(0.707 0.409 -0.707 0.409 0 0)" xml:space="preserve"><tspan x="8" dy="0">knitr</tspan></text></svg></g></g><g opacity="1"><g id="16a9db2c-88b4-4d8a-bd01-d0f0a517681a" transform="translate(0 0)"><svg x="-32" y="703" overflow="visible"><text stroke="#000000" stroke-width="2" font-family="Open Sans" y="30.799999999999997" font-size="20pt" fill="#ffffff" font-weight="bold" transform="matrix(0.707 0.409 -0.707 0.409 0 0)" xml:space="preserve"><tspan x="8" dy="0">.SVG</tspan></text><text font-family="Open Sans" y="30.799999999999997" font-size="20pt" fill="#ffffff" font-weight="bold" transform="matrix(0.707 0.409 -0.707 0.409 0 0)" xml:space="preserve"><tspan x="8" dy="0">.SVG</tspan></text></svg></g></g><g opacity="1"><g id="1e587562-f061-428e-b3c8-1f961b704cfa"><svg x="240" y="657" overflow="visible"><text stroke="#ffffff" stroke-width="4" font-family="Open Sans" y="26.24" font-size="16pt" fill="#ffc107" font-weight="bold" transform="matrix(0.707 -0.409 0.707 0.409 0 0)" xml:space="preserve"><tspan x="8" dy="0">Jekyll</tspan></text><text font-family="Open Sans" y="26.24" font-size="16pt" fill="#ffc107" font-weight="bold" transform="matrix(0.707 -0.409 0.707 0.409 0 0)" xml:space="preserve"><tspan x="8" dy="0">Jekyll</tspan></text></svg></g></g><g opacity="1"><g id="a5872cc9-3cf8-465a-8144-9dd3b7a0a76c" transform="translate(0 0)"><svg x="240" y="546" overflow="visible"><text stroke="#000000" stroke-width="2" font-family="Open Sans" y="30.799999999999997" font-size="20pt" fill="#ffffff" font-weight="bold" transform="matrix(0.707 0.409 -0.707 0.409 0 0)" xml:space="preserve"><tspan x="8" dy="0">.html</tspan></text><text font-family="Open Sans" y="30.799999999999997" font-size="20pt" fill="#ffffff" font-weight="bold" transform="matrix(0.707 0.409 -0.707 0.409 0 0)" xml:space="preserve"><tspan x="8" dy="0">.html</tspan></text></svg></g></g><g opacity="1"><g id="a44e5521-43c4-42f1-906d-35bdc4fc925a"><svg x="64" y="555" overflow="visible"><text stroke="#ffffff" stroke-width="4" font-family="Open Sans" y="26.24" font-size="16pt" fill="#ffc107" font-weight="bold" transform="matrix(0.707 -0.409 0.707 0.409 0 0)" xml:space="preserve"><tspan x="8" dy="0">Content</tspan><tspan x="8" dy="1.1em">Repository</tspan></text><text font-family="Open Sans" y="26.24" font-size="16pt" fill="#ffc107" font-weight="bold" transform="matrix(0.707 -0.409 0.707 0.409 0 0)" xml:space="preserve"><tspan x="8" dy="0">Content</tspan><tspan x="8" dy="1.1em">Repository</tspan></text></svg></g></g><g opacity="1"><g id="af7ab577-6b36-4f2b-8e16-5d63d9361966"><svg x="177" y="324" overflow="visible"><text stroke="#ffffff" stroke-width="4" font-family="Open Sans" y="30.799999999999997" font-size="20pt" fill="#ffc107" font-weight="bold" transform="matrix(0.707 0.409 -0.707 0.409 0 0)" xml:space="preserve"><tspan x="8" dy="0">Cloudflare</tspan></text><text font-family="Open Sans" y="30.799999999999997" font-size="20pt" fill="#ffc107" font-weight="bold" transform="matrix(0.707 0.409 -0.707 0.409 0 0)" xml:space="preserve"><tspan x="8" dy="0">Cloudflare</tspan></text></svg></g></g><g opacity="1"><g id="9dd7b92f-0ad3-4532-9798-de740aa307eb" transform="translate(0 0)"><svg x="-512" y="629" overflow="visible"><text stroke="#ffffff" stroke-width="4" font-family="Open Sans" y="36.5" font-size="25pt" fill="#000000" font-weight="bold" transform="matrix(0.707 -0.409 0.707 0.409 0 0)" xml:space="preserve"><tspan x="8" dy="0">DEV BOX</tspan></text><text font-family="Open Sans" y="36.5" font-size="25pt" fill="#000000" font-weight="bold" transform="matrix(0.707 -0.409 0.707 0.409 0 0)" xml:space="preserve"><tspan x="8" dy="0">DEV BOX</tspan></text></svg></g></g><g opacity="1"><g id="585840ed-de91-40c4-8439-ad23bc714869" transform="translate(0 0)"><svg x="-224" y="463" overflow="visible"><text stroke="#ffffff" stroke-width="4" font-family="Open Sans" y="36.5" font-size="25pt" fill="#000000" font-weight="bold" transform="matrix(0.707 -0.409 0.707 0.409 0 0)" xml:space="preserve"><tspan x="8" dy="0">GITHUB</tspan></text><text font-family="Open Sans" y="36.5" font-size="25pt" fill="#000000" font-weight="bold" transform="matrix(0.707 -0.409 0.707 0.409 0 0)" xml:space="preserve"><tspan x="8" dy="0">GITHUB</tspan></text></svg></g></g><g opacity="1"><g id="44355d82-43a0-4988-8dbe-b40e3dd46210" transform="translate(0 0)"><svg x="336" y="601" overflow="visible"><text stroke="#ffffff" stroke-width="4" font-family="Open Sans" y="26.24" font-size="16pt" fill="#ffc107" font-weight="bold" transform="matrix(0.707 -0.409 0.707 0.409 0 0)" xml:space="preserve"><tspan x="8" dy="0">ngnix</tspan></text><text font-family="Open Sans" y="26.24" font-size="16pt" fill="#ffc107" font-weight="bold" transform="matrix(0.707 -0.409 0.707 0.409 0 0)" xml:space="preserve"><tspan x="8" dy="0">ngnix</tspan></text></svg></g></g></g><g></g></g></svg>