<?xml version="1.0" encoding="UTF-8"?>
<svg width="987px" height="569px" viewBox="0 0 987 569" version="1.1" xmlns="http://www.w3.org/2000/svg" xmlns:xlink="http://www.w3.org/1999/xlink" style="background: #003399;">
    <!-- Generator: Sketch 48.2 (47327) - http://www.bohemiancoding.com/sketch -->
    <title>eu_gdpr</title>
    <desc>Created with Sketch.</desc>
    <defs></defs>
    <g id="Page-1" stroke="none" stroke-width="1" fill="none" fill-rule="evenodd">
        <g id="eu_gdpr">
            <g id="Flag_of_Europe" transform="translate(-113.000000, 0.000000)" fill-rule="nonzero">
                <rect id="Rectangle-path" fill="#003399" x="0" y="0" width="854" height="569"></rect>
                <g id="Group" transform="translate(201.000000, 63.000000)" fill="#FFCC00">
                    <g id="s-link" transform="translate(189.672897, 0.000000)">
                        <g id="s" transform="translate(0.000000, 0.000000)">
                            <g id="c" transform="translate(20.021028, 0.000000)">
                                <polygon id="t" transform="translate(18.437964, 17.483051) rotate(18.000000) translate(-18.437964, -17.483051) " points="10.5349269 1.66937126 10.5349269 33.2967298 26.3410016 33.2967298"></polygon>
                                <g id="t-link" transform="translate(13.343458, 17.500000) scale(-1, 1) translate(-13.343458, -17.500000) translate(0.343458, 0.000000)">
                                    <polygon id="t" transform="translate(13.169273, 17.483051) rotate(18.000000) translate(-13.169273, -17.483051) " points="5.26623528 1.66937126 5.26623528 33.2967298 21.07231 33.2967298"></polygon>
                                </g>
                            </g>
                            <g id="a" transform="translate(21.021028, 6.325472)">
                                <g id="c-link" transform="translate(28.141141, 20.645199) rotate(72.000000) translate(-28.141141, -20.645199) translate(12.641141, 3.145199)">
                                    <g id="c" transform="translate(-0.000000, 0.000000)">
                                        <polygon id="t" transform="translate(18.437964, 17.483051) rotate(18.000000) translate(-18.437964, -17.483051) " points="10.5349269 1.66937126 10.5349269 33.2967298 26.3410016 33.2967298"></polygon>
                                        <g id="t-link" transform="translate(13.343458, 17.500000) scale(-1, 1) translate(-13.343458, -17.500000) translate(0.343458, 0.000000)">
                                            <polygon id="t" transform="translate(13.169273, 17.483051) rotate(18.000000) translate(-13.169273, -17.483051) " points="5.26623528 1.66937126 5.26623528 33.2967298 21.07231 33.2967298"></polygon>
                                        </g>
                                    </g>
                                </g>
                                <g id="c-link" transform="translate(23.353674, 36.551254) rotate(144.000000) translate(-23.353674, -36.551254) translate(7.853674, 19.051254)">
                                    <g id="c" transform="translate(-0.000000, 0.000000)">
                                        <polygon id="t" transform="translate(18.437964, 17.483051) rotate(18.000000) translate(-18.437964, -17.483051) " points="10.5349269 1.66937126 10.5349269 33.2967298 26.3410016 33.2967298"></polygon>
                                        <g id="t-link" transform="translate(13.343458, 17.500000) scale(-1, 1) translate(-13.343458, -17.500000) translate(0.343458, 0.000000)">
                                            <polygon id="t" transform="translate(13.169273, 17.483051) rotate(18.000000) translate(-13.169273, -17.483051) " points="5.26623528 1.66937126 5.26623528 33.2967298 21.07231 33.2967298"></polygon>
                                        </g>
                                    </g>
                                </g>
                            </g>
                            <g id="a-link" transform="translate(25.633178, 36.325472) scale(-1, 1) translate(-25.633178, -36.325472) translate(0.633178, 6.325472)">
                                <g id="a">
                                    <g id="c-link" transform="translate(28.141141, 20.645199) rotate(72.000000) translate(-28.141141, -20.645199) translate(12.641141, 3.145199)">
                                        <g id="c" transform="translate(-0.000000, 0.000000)">
                                            <polygon id="t" transform="translate(18.437964, 17.483051) rotate(18.000000) translate(-18.437964, -17.483051) " points="10.5349269 1.66937126 10.5349269 33.2967298 26.3410016 33.2967298"></polygon>
                                            <g id="t-link" transform="translate(13.343458, 17.500000) scale(-1, 1) translate(-13.343458, -17.500000) translate(0.343458, 0.000000)">
                                                <polygon id="t" transform="translate(13.169273, 17.483051) rotate(18.000000) translate(-13.169273, -17.483051) " points="5.26623528 1.66937126 5.26623528 33.2967298 21.07231 33.2967298"></polygon>
                                            </g>
                                        </g>
                                    </g>
                                    <g id="c-link" transform="translate(23.353674, 36.551254) rotate(144.000000) translate(-23.353674, -36.551254) translate(7.853674, 19.051254)">
                                        <g id="c" transform="translate(-0.000000, 0.000000)">
                                            <polygon id="t" transform="translate(18.437964, 17.483051) rotate(18.000000) translate(-18.437964, -17.483051) " points="10.5349269 1.66937126 10.5349269 33.2967298 26.3410016 33.2967298"></polygon>
                                            <g id="t-link" transform="translate(13.343458, 17.500000) scale(-1, 1) translate(-13.343458, -17.500000) translate(0.343458, 0.000000)">
                                                <polygon id="t" transform="translate(13.169273, 17.483051) rotate(18.000000) translate(-13.169273, -17.483051) " points="5.26623528 1.66937126 5.26623528 33.2967298 21.07231 33.2967298"></polygon>
                                            </g>
                                        </g>
                                    </g>
                                </g>
                            </g>
                        </g>
                    </g>
                    <g id="s-link" transform="translate(189.672897, 379.528302)">
                        <g id="s" transform="translate(0.000000, 0.000000)">
                            <g id="c" transform="translate(20.021028, 0.000000)">
                                <polygon id="t" transform="translate(18.437964, 17.483051) rotate(18.000000) translate(-18.437964, -17.483051) " points="10.5349269 1.66937126 10.5349269 33.2967298 26.3410016 33.2967298"></polygon>
                                <g id="t-link" transform="translate(13.343458, 17.500000) scale(-1, 1) translate(-13.343458, -17.500000) translate(0.343458, 0.000000)">
                                    <polygon id="t" transform="translate(13.169273, 17.483051) rotate(18.000000) translate(-13.169273, -17.483051) " points="5.26623528 1.66937126 5.26623528 33.2967298 21.07231 33.2967298"></polygon>
                                </g>
                            </g>
                            <g id="a" transform="translate(21.021028, 6.325472)">
                                <g id="c-link" transform="translate(28.141141, 20.645199) rotate(72.000000) translate(-28.141141, -20.645199) translate(12.641141, 3.145199)">
                                    <g id="c" transform="translate(-0.000000, 0.000000)">
                                        <polygon id="t" transform="translate(18.437964, 17.483051) rotate(18.000000) translate(-18.437964, -17.483051) " points="10.5349269 1.66937126 10.5349269 33.2967298 26.3410016 33.2967298"></polygon>
                                        <g id="t-link" transform="translate(13.343458, 17.500000) scale(-1, 1) translate(-13.343458, -17.500000) translate(0.343458, 0.000000)">
                                            <polygon id="t" transform="translate(13.169273, 17.483051) rotate(18.000000) translate(-13.169273, -17.483051) " points="5.26623528 1.66937126 5.26623528 33.2967298 21.07231 33.2967298"></polygon>
                                        </g>
                                    </g>
                                </g>
                                <g id="c-link" transform="translate(23.353674, 36.551254) rotate(144.000000) translate(-23.353674, -36.551254) translate(7.853674, 19.051254)">
                                    <g id="c" transform="translate(-0.000000, 0.000000)">
                                        <polygon id="t" transform="translate(18.437964, 17.483051) rotate(18.000000) translate(-18.437964, -17.483051) " points="10.5349269 1.66937126 10.5349269 33.2967298 26.3410016 33.2967298"></polygon>
                                        <g id="t-link" transform="translate(13.343458, 17.500000) scale(-1, 1) translate(-13.343458, -17.500000) translate(0.343458, 0.000000)">
                                            <polygon id="t" transform="translate(13.169273, 17.483051) rotate(18.000000) translate(-13.169273, -17.483051) " points="5.26623528 1.66937126 5.26623528 33.2967298 21.07231 33.2967298"></polygon>
                                        </g>
                                    </g>
                                </g>
                            </g>
                            <g id="a-link" transform="translate(25.633178, 36.325472) scale(-1, 1) translate(-25.633178, -36.325472) translate(0.633178, 6.325472)">
                                <g id="a">
                                    <g id="c-link" transform="translate(28.141141, 20.645199) rotate(72.000000) translate(-28.141141, -20.645199) translate(12.641141, 3.145199)">
                                        <g id="c" transform="translate(-0.000000, 0.000000)">
                                            <polygon id="t" transform="translate(18.437964, 17.483051) rotate(18.000000) translate(-18.437964, -17.483051) " points="10.5349269 1.66937126 10.5349269 33.2967298 26.3410016 33.2967298"></polygon>
                                            <g id="t-link" transform="translate(13.343458, 17.500000) scale(-1, 1) translate(-13.343458, -17.500000) translate(0.343458, 0.000000)">
                                                <polygon id="t" transform="translate(13.169273, 17.483051) rotate(18.000000) translate(-13.169273, -17.483051) " points="5.26623528 1.66937126 5.26623528 33.2967298 21.07231 33.2967298"></polygon>
                                            </g>
                                        </g>
                                    </g>
                                    <g id="c-link" transform="translate(23.353674, 36.551254) rotate(144.000000) translate(-23.353674, -36.551254) translate(7.853674, 19.051254)">
                                        <g id="c" transform="translate(-0.000000, 0.000000)">
                                            <polygon id="t" transform="translate(18.437964, 17.483051) rotate(18.000000) translate(-18.437964, -17.483051) " points="10.5349269 1.66937126 10.5349269 33.2967298 26.3410016 33.2967298"></polygon>
                                            <g id="t-link" transform="translate(13.343458, 17.500000) scale(-1, 1) translate(-13.343458, -17.500000) translate(0.343458, 0.000000)">
                                                <polygon id="t" transform="translate(13.169273, 17.483051) rotate(18.000000) translate(-13.169273, -17.483051) " points="5.26623528 1.66937126 5.26623528 33.2967298 21.07231 33.2967298"></polygon>
                                            </g>
                                        </g>
                                    </g>
                                </g>
                            </g>
                        </g>
                    </g>
                    <g id="l" transform="translate(0.000000, 6.325472)">
                        <g id="s-link" transform="translate(0.000000, 183.438679)">
                            <g id="s">
                                <g id="c" transform="translate(20.021028, 0.000000)">
                                    <polygon id="t" transform="translate(18.437964, 17.483051) rotate(18.000000) translate(-18.437964, -17.483051) " points="10.5349269 1.66937126 10.5349269 33.2967298 26.3410016 33.2967298"></polygon>
                                    <g id="t-link" transform="translate(13.343458, 17.500000) scale(-1, 1) translate(-13.343458, -17.500000) translate(0.343458, 0.000000)">
                                        <polygon id="t" transform="translate(13.169273, 17.483051) rotate(18.000000) translate(-13.169273, -17.483051) " points="5.26623528 1.66937126 5.26623528 33.2967298 21.07231 33.2967298"></polygon>
                                    </g>
                                </g>
                                <g id="a" transform="translate(21.021028, 6.325472)">
                                    <g id="c-link" transform="translate(28.141141, 20.645199) rotate(72.000000) translate(-28.141141, -20.645199) translate(12.641141, 3.145199)">
                                        <g id="c" transform="translate(-0.000000, 0.000000)">
                                            <polygon id="t" transform="translate(18.437964, 17.483051) rotate(18.000000) translate(-18.437964, -17.483051) " points="10.5349269 1.66937126 10.5349269 33.2967298 26.3410016 33.2967298"></polygon>
                                            <g id="t-link" transform="translate(13.343458, 17.500000) scale(-1, 1) translate(-13.343458, -17.500000) translate(0.343458, 0.000000)">
                                                <polygon id="t" transform="translate(13.169273, 17.483051) rotate(18.000000) translate(-13.169273, -17.483051) " points="5.26623528 1.66937126 5.26623528 33.2967298 21.07231 33.2967298"></polygon>
                                            </g>
                                        </g>
                                    </g>
                                    <g id="c-link" transform="translate(23.353674, 36.551254) rotate(144.000000) translate(-23.353674, -36.551254) translate(7.853674, 19.051254)">
                                        <g id="c" transform="translate(-0.000000, 0.000000)">
                                            <polygon id="t" transform="translate(18.437964, 17.483051) rotate(18.000000) translate(-18.437964, -17.483051) " points="10.5349269 1.66937126 10.5349269 33.2967298 26.3410016 33.2967298"></polygon>
                                            <g id="t-link" transform="translate(13.343458, 17.500000) scale(-1, 1) translate(-13.343458, -17.500000) translate(0.343458, 0.000000)">
                                                <polygon id="t" transform="translate(13.169273, 17.483051) rotate(18.000000) translate(-13.169273, -17.483051) " points="5.26623528 1.66937126 5.26623528 33.2967298 21.07231 33.2967298"></polygon>
                                            </g>
                                        </g>
                                    </g>
                                </g>
                                <g id="a-link" transform="translate(25.633178, 36.325472) scale(-1, 1) translate(-25.633178, -36.325472) translate(0.633178, 6.325472)">
                                    <g id="a">
                                        <g id="c-link" transform="translate(28.141141, 20.645199) rotate(72.000000) translate(-28.141141, -20.645199) translate(12.641141, 3.145199)">
                                            <g id="c" transform="translate(-0.000000, 0.000000)">
                                                <polygon id="t" transform="translate(18.437964, 17.483051) rotate(18.000000) translate(-18.437964, -17.483051) " points="10.5349269 1.66937126 10.5349269 33.2967298 26.3410016 33.2967298"></polygon>
                                                <g id="t-link" transform="translate(13.343458, 17.500000) scale(-1, 1) translate(-13.343458, -17.500000) translate(0.343458, 0.000000)">
                                                    <polygon id="t" transform="translate(13.169273, 17.483051) rotate(18.000000) translate(-13.169273, -17.483051) " points="5.26623528 1.66937126 5.26623528 33.2967298 21.07231 33.2967298"></polygon>
                                                </g>
                                            </g>
                                        </g>
                                        <g id="c-link" transform="translate(23.353674, 36.551254) rotate(144.000000) translate(-23.353674, -36.551254) translate(7.853674, 19.051254)">
                                            <g id="c" transform="translate(-0.000000, 0.000000)">
                                                <polygon id="t" transform="translate(18.437964, 17.483051) rotate(18.000000) translate(-18.437964, -17.483051) " points="10.5349269 1.66937126 10.5349269 33.2967298 26.3410016 33.2967298"></polygon>
                                                <g id="t-link" transform="translate(13.343458, 17.500000) scale(-1, 1) translate(-13.343458, -17.500000) translate(0.343458, 0.000000)">
                                                    <polygon id="t" transform="translate(13.169273, 17.483051) rotate(18.000000) translate(-13.169273, -17.483051) " points="5.26623528 1.66937126 5.26623528 33.2967298 21.07231 33.2967298"></polygon>
                                                </g>
                                            </g>
                                        </g>
                                    </g>
                                </g>
                            </g>
                        </g>
                        <g id="s-link" transform="translate(131.623790, 49.108837) rotate(-144.000000) translate(-131.623790, -49.108837) translate(95.623790, 15.608837)">
                            <g id="s" transform="translate(0.000000, -0.000000)">
                                <g id="c" transform="translate(20.021028, 0.000000)">
                                    <polygon id="t" transform="translate(18.437964, 17.483051) rotate(18.000000) translate(-18.437964, -17.483051) " points="10.5349269 1.66937126 10.5349269 33.2967298 26.3410016 33.2967298"></polygon>
                                    <g id="t-link" transform="translate(13.343458, 17.500000) scale(-1, 1) translate(-13.343458, -17.500000) translate(0.343458, 0.000000)">
                                        <polygon id="t" transform="translate(13.169273, 17.483051) rotate(18.000000) translate(-13.169273, -17.483051) " points="5.26623528 1.66937126 5.26623528 33.2967298 21.07231 33.2967298"></polygon>
                                    </g>
                                </g>
                                <g id="a" transform="translate(21.021028, 6.325472)">
                                    <g id="c-link" transform="translate(28.141141, 20.645199) rotate(72.000000) translate(-28.141141, -20.645199) translate(12.641141, 3.145199)">
                                        <g id="c" transform="translate(0.000000, 0.000000)">
                                            <polygon id="t" transform="translate(18.437964, 17.483051) rotate(18.000000) translate(-18.437964, -17.483051) " points="10.5349269 1.66937126 10.5349269 33.2967298 26.3410016 33.2967298"></polygon>
                                            <g id="t-link" transform="translate(13.343458, 17.500000) scale(-1, 1) translate(-13.343458, -17.500000) translate(0.343458, 0.000000)">
                                                <polygon id="t" transform="translate(13.169273, 17.483051) rotate(18.000000) translate(-13.169273, -17.483051) " points="5.26623528 1.66937126 5.26623528 33.2967298 21.07231 33.2967298"></polygon>
                                            </g>
                                        </g>
                                    </g>
                                    <g id="c-link" transform="translate(23.353674, 36.551254) rotate(144.000000) translate(-23.353674, -36.551254) translate(7.853674, 19.051254)">
                                        <g id="c" transform="translate(-0.000000, 0.000000)">
                                            <polygon id="t" transform="translate(18.437964, 17.483051) rotate(18.000000) translate(-18.437964, -17.483051) " points="10.5349269 1.66937126 10.5349269 33.2967298 26.3410016 33.2967298"></polygon>
                                            <g id="t-link" transform="translate(13.343458, 17.500000) scale(-1, 1) translate(-13.343458, -17.500000) translate(0.343458, 0.000000)">
                                                <polygon id="t" transform="translate(13.169273, 17.483051) rotate(18.000000) translate(-13.169273, -17.483051) " points="5.26623528 1.66937126 5.26623528 33.2967298 21.07231 33.2967298"></polygon>
                                            </g>
                                        </g>
                                    </g>
                                </g>
                                <g id="a-link" transform="translate(25.633178, 36.325472) scale(-1, 1) translate(-25.633178, -36.325472) translate(0.633178, 6.325472)">
                                    <g id="a" transform="translate(-0.000000, -0.000000)">
                                        <g id="c-link" transform="translate(28.141141, 20.645199) rotate(72.000000) translate(-28.141141, -20.645199) translate(12.641141, 3.145199)">
                                            <g id="c" transform="translate(0.000000, 0.000000)">
                                                <polygon id="t" transform="translate(18.437964, 17.483051) rotate(18.000000) translate(-18.437964, -17.483051) " points="10.5349269 1.66937126 10.5349269 33.2967298 26.3410016 33.2967298"></polygon>
                                                <g id="t-link" transform="translate(13.343458, 17.500000) scale(-1, 1) translate(-13.343458, -17.500000) translate(0.343458, 0.000000)">
                                                    <polygon id="t" transform="translate(13.169273, 17.483051) rotate(18.000000) translate(-13.169273, -17.483051) " points="5.26623528 1.66937126 5.26623528 33.2967298 21.07231 33.2967298"></polygon>
                                                </g>
                                            </g>
                                        </g>
                                        <g id="c-link" transform="translate(23.353674, 36.551254) rotate(144.000000) translate(-23.353674, -36.551254) translate(7.853674, 19.051254)">
                                            <g id="c" transform="translate(-0.000000, 0.000000)">
                                                <polygon id="t" transform="translate(18.437964, 17.483051) rotate(18.000000) translate(-18.437964, -17.483051) " points="10.5349269 1.66937126 10.5349269 33.2967298 26.3410016 33.2967298"></polygon>
                                                <g id="t-link" transform="translate(13.343458, 17.500000) scale(-1, 1) translate(-13.343458, -17.500000) translate(0.343458, 0.000000)">
                                                    <polygon id="t" transform="translate(13.169273, 17.483051) rotate(18.000000) translate(-13.169273, -17.483051) " points="5.26623528 1.66937126 5.26623528 33.2967298 21.07231 33.2967298"></polygon>
                                                </g>
                                            </g>
                                        </g>
                                    </g>
                                </g>
                            </g>
                        </g>
                        <g id="s-link" transform="translate(59.998461, 118.770590) rotate(144.000000) translate(-59.998461, -118.770590) translate(23.998461, 85.270590)">
                            <g id="s" transform="translate(0.000000, 0.000000)">
                                <g id="c" transform="translate(20.021028, -0.000000)">
                                    <polygon id="t" transform="translate(18.437964, 17.483051) rotate(18.000000) translate(-18.437964, -17.483051) " points="10.5349269 1.66937126 10.5349269 33.2967298 26.3410016 33.2967298"></polygon>
                                    <g id="t-link" transform="translate(13.343458, 17.500000) scale(-1, 1) translate(-13.343458, -17.500000) translate(0.343458, 0.000000)">
                                        <polygon id="t" transform="translate(13.169273, 17.483051) rotate(18.000000) translate(-13.169273, -17.483051) " points="5.26623528 1.66937126 5.26623528 33.2967298 21.07231 33.2967298"></polygon>
                                    </g>
                                </g>
                                <g id="a" transform="translate(21.021028, 6.325472)">
                                    <g id="c-link" transform="translate(28.141141, 20.645199) rotate(72.000000) translate(-28.141141, -20.645199) translate(12.641141, 3.145199)">
                                        <g id="c" transform="translate(-0.000000, 0.000000)">
                                            <polygon id="t" transform="translate(18.437964, 17.483051) rotate(18.000000) translate(-18.437964, -17.483051) " points="10.5349269 1.66937126 10.5349269 33.2967298 26.3410016 33.2967298"></polygon>
                                            <g id="t-link" transform="translate(13.343458, 17.500000) scale(-1, 1) translate(-13.343458, -17.500000) translate(0.343458, 0.000000)">
                                                <polygon id="t" transform="translate(13.169273, 17.483051) rotate(18.000000) translate(-13.169273, -17.483051) " points="5.26623528 1.66937126 5.26623528 33.2967298 21.07231 33.2967298"></polygon>
                                            </g>
                                        </g>
                                    </g>
                                    <g id="c-link" transform="translate(23.353674, 36.551254) rotate(144.000000) translate(-23.353674, -36.551254) translate(7.853674, 19.051254)">
                                        <g id="c" transform="translate(0.000000, 0.000000)">
                                            <polygon id="t" transform="translate(18.437964, 17.483051) rotate(18.000000) translate(-18.437964, -17.483051) " points="10.5349269 1.66937126 10.5349269 33.2967298 26.3410016 33.2967298"></polygon>
                                            <g id="t-link" transform="translate(13.343458, 17.500000) scale(-1, 1) translate(-13.343458, -17.500000) translate(0.343458, 0.000000)">
                                                <polygon id="t" transform="translate(13.169273, 17.483051) rotate(18.000000) translate(-13.169273, -17.483051) " points="5.26623528 1.66937126 5.26623528 33.2967298 21.07231 33.2967298"></polygon>
                                            </g>
                                        </g>
                                    </g>
                                </g>
                                <g id="a-link" transform="translate(25.633178, 36.325472) scale(-1, 1) translate(-25.633178, -36.325472) translate(0.633178, 6.325472)">
                                    <g id="a" transform="translate(0.000000, -0.000000)">
                                        <g id="c-link" transform="translate(28.141141, 20.645199) rotate(72.000000) translate(-28.141141, -20.645199) translate(12.641141, 3.145199)">
                                            <g id="c" transform="translate(0.000000, 0.000000)">
                                                <polygon id="t" transform="translate(18.437964, 17.483051) rotate(18.000000) translate(-18.437964, -17.483051) " points="10.5349269 1.66937126 10.5349269 33.2967298 26.3410016 33.2967298"></polygon>
                                                <g id="t-link" transform="translate(13.343458, 17.500000) scale(-1, 1) translate(-13.343458, -17.500000) translate(0.343458, 0.000000)">
                                                    <polygon id="t" transform="translate(13.169273, 17.483051) rotate(18.000000) translate(-13.169273, -17.483051) " points="5.26623528 1.66937126 5.26623528 33.2967298 21.07231 33.2967298"></polygon>
                                                </g>
                                            </g>
                                        </g>
                                        <g id="c-link" transform="translate(23.353674, 36.551254) rotate(144.000000) translate(-23.353674, -36.551254) translate(7.853674, 19.051254)">
                                            <g id="c" transform="translate(-0.000000, 0.000000)">
                                                <polygon id="t" transform="translate(18.437964, 17.483051) rotate(18.000000) translate(-18.437964, -17.483051) " points="10.5349269 1.66937126 10.5349269 33.2967298 26.3410016 33.2967298"></polygon>
                                                <g id="t-link" transform="translate(13.343458, 17.500000) scale(-1, 1) translate(-13.343458, -17.500000) translate(0.343458, 0.000000)">
                                                    <polygon id="t" transform="translate(13.169273, 17.483051) rotate(18.000000) translate(-13.169273, -17.483051) " points="5.26623528 1.66937126 5.26623528 33.2967298 21.07231 33.2967298"></polygon>
                                                </g>
                                            </g>
                                        </g>
                                    </g>
                                </g>
                            </g>
                        </g>
                        <g id="s-link" transform="translate(59.511857, 310.691226) rotate(72.000000) translate(-59.511857, -310.691226) translate(23.511857, 277.191226)">
                            <g id="s" transform="translate(-0.000000, 0.000000)">
                                <g id="c" transform="translate(20.021028, -0.000000)">
                                    <polygon id="t" transform="translate(18.437964, 17.483051) rotate(18.000000) translate(-18.437964, -17.483051) " points="10.5349269 1.66937126 10.5349269 33.2967298 26.3410016 33.2967298"></polygon>
                                    <g id="t-link" transform="translate(13.343458, 17.500000) scale(-1, 1) translate(-13.343458, -17.500000) translate(0.343458, 0.000000)">
                                        <polygon id="t" transform="translate(13.169273, 17.483051) rotate(18.000000) translate(-13.169273, -17.483051) " points="5.26623528 1.66937126 5.26623528 33.2967298 21.07231 33.2967298"></polygon>
                                    </g>
                                </g>
                                <g id="a" transform="translate(21.021028, 6.325472)">
                                    <g id="c-link" transform="translate(28.141141, 20.645199) rotate(72.000000) translate(-28.141141, -20.645199) translate(12.641141, 3.145199)">
                                        <g id="c" transform="translate(0.000000, 0.000000)">
                                            <polygon id="t" transform="translate(18.437964, 17.483051) rotate(18.000000) translate(-18.437964, -17.483051) " points="10.5349269 1.66937126 10.5349269 33.2967298 26.3410016 33.2967298"></polygon>
                                            <g id="t-link" transform="translate(13.343458, 17.500000) scale(-1, 1) translate(-13.343458, -17.500000) translate(0.343458, 0.000000)">
                                                <polygon id="t" transform="translate(13.169273, 17.483051) rotate(18.000000) translate(-13.169273, -17.483051) " points="5.26623528 1.66937126 5.26623528 33.2967298 21.07231 33.2967298"></polygon>
                                            </g>
                                        </g>
                                    </g>
                                    <g id="c-link" transform="translate(23.353674, 36.551254) rotate(144.000000) translate(-23.353674, -36.551254) translate(7.853674, 19.051254)">
                                        <g id="c" transform="translate(0.000000, 0.000000)">
                                            <polygon id="t" transform="translate(18.437964, 17.483051) rotate(18.000000) translate(-18.437964, -17.483051) " points="10.5349269 1.66937126 10.5349269 33.2967298 26.3410016 33.2967298"></polygon>
                                            <g id="t-link" transform="translate(13.343458, 17.500000) scale(-1, 1) translate(-13.343458, -17.500000) translate(0.343458, 0.000000)">
                                                <polygon id="t" transform="translate(13.169273, 17.483051) rotate(18.000000) translate(-13.169273, -17.483051) " points="5.26623528 1.66937126 5.26623528 33.2967298 21.07231 33.2967298"></polygon>
                                            </g>
                                        </g>
                                    </g>
                                </g>
                                <g id="a-link" transform="translate(25.633178, 36.325472) scale(-1, 1) translate(-25.633178, -36.325472) translate(0.633178, 6.325472)">
                                    <g id="a" transform="translate(0.000000, -0.000000)">
                                        <g id="c-link" transform="translate(28.141141, 20.645199) rotate(72.000000) translate(-28.141141, -20.645199) translate(12.641141, 3.145199)">
                                            <g id="c" transform="translate(0.000000, 0.000000)">
                                                <polygon id="t" transform="translate(18.437964, 17.483051) rotate(18.000000) translate(-18.437964, -17.483051) " points="10.5349269 1.66937126 10.5349269 33.2967298 26.3410016 33.2967298"></polygon>
                                                <g id="t-link" transform="translate(13.343458, 17.500000) scale(-1, 1) translate(-13.343458, -17.500000) translate(0.343458, 0.000000)">
                                                    <polygon id="t" transform="translate(13.169273, 17.483051) rotate(18.000000) translate(-13.169273, -17.483051) " points="5.26623528 1.66937126 5.26623528 33.2967298 21.07231 33.2967298"></polygon>
                                                </g>
                                            </g>
                                        </g>
                                        <g id="c-link" transform="translate(23.353674, 36.551254) rotate(144.000000) translate(-23.353674, -36.551254) translate(7.853674, 19.051254)">
                                            <g id="c" transform="translate(0.000000, 0.000000)">
                                                <polygon id="t" transform="translate(18.437964, 17.483051) rotate(18.000000) translate(-18.437964, -17.483051) " points="10.5349269 1.66937126 10.5349269 33.2967298 26.3410016 33.2967298"></polygon>
                                                <g id="t-link" transform="translate(13.343458, 17.500000) scale(-1, 1) translate(-13.343458, -17.500000) translate(0.343458, 0.000000)">
                                                    <polygon id="t" transform="translate(13.169273, 17.483051) rotate(18.000000) translate(-13.169273, -17.483051) " points="5.26623528 1.66937126 5.26623528 33.2967298 21.07231 33.2967298"></polygon>
                                                </g>
                                            </g>
                                        </g>
                                    </g>
                                </g>
                            </g>
                        </g>
                        <g id="s-link" transform="translate(128.936956, 380.149726) rotate(72.000000) translate(-128.936956, -380.149726) translate(92.936956, 346.649726)">
                            <g id="s" transform="translate(-0.000000, 0.000000)">
                                <g id="c" transform="translate(20.021028, 0.000000)">
                                    <polygon id="t" transform="translate(18.437964, 17.483051) rotate(18.000000) translate(-18.437964, -17.483051) " points="10.5349269 1.66937126 10.5349269 33.2967298 26.3410016 33.2967298"></polygon>
                                    <g id="t-link" transform="translate(13.343458, 17.500000) scale(-1, 1) translate(-13.343458, -17.500000) translate(0.343458, 0.000000)">
                                        <polygon id="t" transform="translate(13.169273, 17.483051) rotate(18.000000) translate(-13.169273, -17.483051) " points="5.26623528 1.66937126 5.26623528 33.2967298 21.07231 33.2967298"></polygon>
                                    </g>
                                </g>
                                <g id="a" transform="translate(21.021028, 6.325472)">
                                    <g id="c-link" transform="translate(28.141141, 20.645199) rotate(72.000000) translate(-28.141141, -20.645199) translate(12.641141, 3.145199)">
                                        <g id="c" transform="translate(0.000000, 0.000000)">
                                            <polygon id="t" transform="translate(18.437964, 17.483051) rotate(18.000000) translate(-18.437964, -17.483051) " points="10.5349269 1.66937126 10.5349269 33.2967298 26.3410016 33.2967298"></polygon>
                                            <g id="t-link" transform="translate(13.343458, 17.500000) scale(-1, 1) translate(-13.343458, -17.500000) translate(0.343458, 0.000000)">
                                                <polygon id="t" transform="translate(13.169273, 17.483051) rotate(18.000000) translate(-13.169273, -17.483051) " points="5.26623528 1.66937126 5.26623528 33.2967298 21.07231 33.2967298"></polygon>
                                            </g>
                                        </g>
                                    </g>
                                    <g id="c-link" transform="translate(23.353674, 36.551254) rotate(144.000000) translate(-23.353674, -36.551254) translate(7.853674, 19.051254)">
                                        <g id="c" transform="translate(0.000000, 0.000000)">
                                            <polygon id="t" transform="translate(18.437964, 17.483051) rotate(18.000000) translate(-18.437964, -17.483051) " points="10.5349269 1.66937126 10.5349269 33.2967298 26.3410016 33.2967298"></polygon>
                                            <g id="t-link" transform="translate(13.343458, 17.500000) scale(-1, 1) translate(-13.343458, -17.500000) translate(0.343458, 0.000000)">
                                                <polygon id="t" transform="translate(13.169273, 17.483051) rotate(18.000000) translate(-13.169273, -17.483051) " points="5.26623528 1.66937126 5.26623528 33.2967298 21.07231 33.2967298"></polygon>
                                            </g>
                                        </g>
                                    </g>
                                </g>
                                <g id="a-link" transform="translate(25.633178, 36.325472) scale(-1, 1) translate(-25.633178, -36.325472) translate(0.633178, 6.325472)">
                                    <g id="a" transform="translate(0.000000, -0.000000)">
                                        <g id="c-link" transform="translate(28.141141, 20.645199) rotate(72.000000) translate(-28.141141, -20.645199) translate(12.641141, 3.145199)">
                                            <g id="c" transform="translate(0.000000, 0.000000)">
                                                <polygon id="t" transform="translate(18.437964, 17.483051) rotate(18.000000) translate(-18.437964, -17.483051) " points="10.5349269 1.66937126 10.5349269 33.2967298 26.3410016 33.2967298"></polygon>
                                                <g id="t-link" transform="translate(13.343458, 17.500000) scale(-1, 1) translate(-13.343458, -17.500000) translate(0.343458, 0.000000)">
                                                    <polygon id="t" transform="translate(13.169273, 17.483051) rotate(18.000000) translate(-13.169273, -17.483051) " points="5.26623528 1.66937126 5.26623528 33.2967298 21.07231 33.2967298"></polygon>
                                                </g>
                                            </g>
                                        </g>
                                        <g id="c-link" transform="translate(23.353674, 36.551254) rotate(144.000000) translate(-23.353674, -36.551254) translate(7.853674, 19.051254)">
                                            <g id="c" transform="translate(0.000000, 0.000000)">
                                                <polygon id="t" transform="translate(18.437964, 17.483051) rotate(18.000000) translate(-18.437964, -17.483051) " points="10.5349269 1.66937126 10.5349269 33.2967298 26.3410016 33.2967298"></polygon>
                                                <g id="t-link" transform="translate(13.343458, 17.500000) scale(-1, 1) translate(-13.343458, -17.500000) translate(0.343458, 0.000000)">
                                                    <polygon id="t" transform="translate(13.169273, 17.483051) rotate(18.000000) translate(-13.169273, -17.483051) " points="5.26623528 1.66937126 5.26623528 33.2967298 21.07231 33.2967298"></polygon>
                                                </g>
                                            </g>
                                        </g>
                                    </g>
                                </g>
                            </g>
                        </g>
                    </g>
                    <g id="l-link" transform="translate(360.500000, 218.825472) scale(-1, 1) translate(-360.500000, -218.825472) translate(270.000000, 6.325472)">
                        <g id="l" transform="translate(0.000000, 0.000000)">
                            <g id="s-link" transform="translate(0.000000, 183.438679)">
                                <g id="s">
                                    <g id="c" transform="translate(20.021028, 0.000000)">
                                        <polygon id="t" transform="translate(18.437964, 17.483051) rotate(18.000000) translate(-18.437964, -17.483051) " points="10.5349269 1.66937126 10.5349269 33.2967298 26.3410016 33.2967298"></polygon>
                                        <g id="t-link" transform="translate(13.343458, 17.500000) scale(-1, 1) translate(-13.343458, -17.500000) translate(0.343458, 0.000000)">
                                            <polygon id="t" transform="translate(13.169273, 17.483051) rotate(18.000000) translate(-13.169273, -17.483051) " points="5.26623528 1.66937126 5.26623528 33.2967298 21.07231 33.2967298"></polygon>
                                        </g>
                                    </g>
                                    <g id="a" transform="translate(21.021028, 6.325472)">
                                        <g id="c-link" transform="translate(28.141141, 20.645199) rotate(72.000000) translate(-28.141141, -20.645199) translate(12.641141, 3.145199)">
                                            <g id="c" transform="translate(-0.000000, 0.000000)">
                                                <polygon id="t" transform="translate(18.437964, 17.483051) rotate(18.000000) translate(-18.437964, -17.483051) " points="10.5349269 1.66937126 10.5349269 33.2967298 26.3410016 33.2967298"></polygon>
                                                <g id="t-link" transform="translate(13.343458, 17.500000) scale(-1, 1) translate(-13.343458, -17.500000) translate(0.343458, 0.000000)">
                                                    <polygon id="t" transform="translate(13.169273, 17.483051) rotate(18.000000) translate(-13.169273, -17.483051) " points="5.26623528 1.66937126 5.26623528 33.2967298 21.07231 33.2967298"></polygon>
                                                </g>
                                            </g>
                                        </g>
                                        <g id="c-link" transform="translate(23.353674, 36.551254) rotate(144.000000) translate(-23.353674, -36.551254) translate(7.853674, 19.051254)">
                                            <g id="c" transform="translate(0.000000, 0.000000)">
                                                <polygon id="t" transform="translate(18.437964, 17.483051) rotate(18.000000) translate(-18.437964, -17.483051) " points="10.5349269 1.66937126 10.5349269 33.2967298 26.3410016 33.2967298"></polygon>
                                                <g id="t-link" transform="translate(13.343458, 17.500000) scale(-1, 1) translate(-13.343458, -17.500000) translate(0.343458, 0.000000)">
                                                    <polygon id="t" transform="translate(13.169273, 17.483051) rotate(18.000000) translate(-13.169273, -17.483051) " points="5.26623528 1.66937126 5.26623528 33.2967298 21.07231 33.2967298"></polygon>
                                                </g>
                                            </g>
                                        </g>
                                    </g>
                                    <g id="a-link" transform="translate(25.633178, 36.325472) scale(-1, 1) translate(-25.633178, -36.325472) translate(0.633178, 6.325472)">
                                        <g id="a">
                                            <g id="c-link" transform="translate(28.141141, 20.645199) rotate(72.000000) translate(-28.141141, -20.645199) translate(12.641141, 3.145199)">
                                                <g id="c" transform="translate(-0.000000, 0.000000)">
                                                    <polygon id="t" transform="translate(18.437964, 17.483051) rotate(18.000000) translate(-18.437964, -17.483051) " points="10.5349269 1.66937126 10.5349269 33.2967298 26.3410016 33.2967298"></polygon>
                                                    <g id="t-link" transform="translate(13.343458, 17.500000) scale(-1, 1) translate(-13.343458, -17.500000) translate(0.343458, 0.000000)">
                                                        <polygon id="t" transform="translate(13.169273, 17.483051) rotate(18.000000) translate(-13.169273, -17.483051) " points="5.26623528 1.66937126 5.26623528 33.2967298 21.07231 33.2967298"></polygon>
                                                    </g>
                                                </g>
                                            </g>
                                            <g id="c-link" transform="translate(23.353674, 36.551254) rotate(144.000000) translate(-23.353674, -36.551254) translate(7.853674, 19.051254)">
                                                <g id="c" transform="translate(0.000000, 0.000000)">
                                                    <polygon id="t" transform="translate(18.437964, 17.483051) rotate(18.000000) translate(-18.437964, -17.483051) " points="10.5349269 1.66937126 10.5349269 33.2967298 26.3410016 33.2967298"></polygon>
                                                    <g id="t-link" transform="translate(13.343458, 17.500000) scale(-1, 1) translate(-13.343458, -17.500000) translate(0.343458, 0.000000)">
                                                        <polygon id="t" transform="translate(13.169273, 17.483051) rotate(18.000000) translate(-13.169273, -17.483051) " points="5.26623528 1.66937126 5.26623528 33.2967298 21.07231 33.2967298"></polygon>
                                                    </g>
                                                </g>
                                            </g>
                                        </g>
                                    </g>
                                </g>
                            </g>
                            <g id="s-link" transform="translate(131.623790, 49.108837) rotate(-144.000000) translate(-131.623790, -49.108837) translate(95.623790, 15.608837)">
                                <g id="s" transform="translate(0.000000, -0.000000)">
                                    <g id="c" transform="translate(20.021028, 0.000000)">
                                        <polygon id="t" transform="translate(18.437964, 17.483051) rotate(18.000000) translate(-18.437964, -17.483051) " points="10.5349269 1.66937126 10.5349269 33.2967298 26.3410016 33.2967298"></polygon>
                                        <g id="t-link" transform="translate(13.343458, 17.500000) scale(-1, 1) translate(-13.343458, -17.500000) translate(0.343458, 0.000000)">
                                            <polygon id="t" transform="translate(13.169273, 17.483051) rotate(18.000000) translate(-13.169273, -17.483051) " points="5.26623528 1.66937126 5.26623528 33.2967298 21.07231 33.2967298"></polygon>
                                        </g>
                                    </g>
                                    <g id="a" transform="translate(21.021028, 6.325472)">
                                        <g id="c-link" transform="translate(28.141141, 20.645199) rotate(72.000000) translate(-28.141141, -20.645199) translate(12.641141, 3.145199)">
                                            <g id="c" transform="translate(0.000000, 0.000000)">
                                                <polygon id="t" transform="translate(18.437964, 17.483051) rotate(18.000000) translate(-18.437964, -17.483051) " points="10.5349269 1.66937126 10.5349269 33.2967298 26.3410016 33.2967298"></polygon>
                                                <g id="t-link" transform="translate(13.343458, 17.500000) scale(-1, 1) translate(-13.343458, -17.500000) translate(0.343458, 0.000000)">
                                                    <polygon id="t" transform="translate(13.169273, 17.483051) rotate(18.000000) translate(-13.169273, -17.483051) " points="5.26623528 1.66937126 5.26623528 33.2967298 21.07231 33.2967298"></polygon>
                                                </g>
                                            </g>
                                        </g>
                                        <g id="c-link" transform="translate(23.353674, 36.551254) rotate(144.000000) translate(-23.353674, -36.551254) translate(7.853674, 19.051254)">
                                            <g id="c" transform="translate(-0.000000, 0.000000)">
                                                <polygon id="t" transform="translate(18.437964, 17.483051) rotate(18.000000) translate(-18.437964, -17.483051) " points="10.5349269 1.66937126 10.5349269 33.2967298 26.3410016 33.2967298"></polygon>
                                                <g id="t-link" transform="translate(13.343458, 17.500000) scale(-1, 1) translate(-13.343458, -17.500000) translate(0.343458, 0.000000)">
                                                    <polygon id="t" transform="translate(13.169273, 17.483051) rotate(18.000000) translate(-13.169273, -17.483051) " points="5.26623528 1.66937126 5.26623528 33.2967298 21.07231 33.2967298"></polygon>
                                                </g>
                                            </g>
                                        </g>
                                    </g>
                                    <g id="a-link" transform="translate(25.633178, 36.325472) scale(-1, 1) translate(-25.633178, -36.325472) translate(0.633178, 6.325472)">
                                        <g id="a" transform="translate(-0.000000, -0.000000)">
                                            <g id="c-link" transform="translate(28.141141, 20.645199) rotate(72.000000) translate(-28.141141, -20.645199) translate(12.641141, 3.145199)">
                                                <g id="c" transform="translate(0.000000, 0.000000)">
                                                    <polygon id="t" transform="translate(18.437964, 17.483051) rotate(18.000000) translate(-18.437964, -17.483051) " points="10.5349269 1.66937126 10.5349269 33.2967298 26.3410016 33.2967298"></polygon>
                                                    <g id="t-link" transform="translate(13.343458, 17.500000) scale(-1, 1) translate(-13.343458, -17.500000) translate(0.343458, 0.000000)">
                                                        <polygon id="t" transform="translate(13.169273, 17.483051) rotate(18.000000) translate(-13.169273, -17.483051) " points="5.26623528 1.66937126 5.26623528 33.2967298 21.07231 33.2967298"></polygon>
                                                    </g>
                                                </g>
                                            </g>
                                            <g id="c-link" transform="translate(23.353674, 36.551254) rotate(144.000000) translate(-23.353674, -36.551254) translate(7.853674, 19.051254)">
                                                <g id="c" transform="translate(-0.000000, 0.000000)">
                                                    <polygon id="t" transform="translate(18.437964, 17.483051) rotate(18.000000) translate(-18.437964, -17.483051) " points="10.5349269 1.66937126 10.5349269 33.2967298 26.3410016 33.2967298"></polygon>
                                                    <g id="t-link" transform="translate(13.343458, 17.500000) scale(-1, 1) translate(-13.343458, -17.500000) translate(0.343458, 0.000000)">
                                                        <polygon id="t" transform="translate(13.169273, 17.483051) rotate(18.000000) translate(-13.169273, -17.483051) " points="5.26623528 1.66937126 5.26623528 33.2967298 21.07231 33.2967298"></polygon>
                                                    </g>
                                                </g>
                                            </g>
                                        </g>
                                    </g>
                                </g>
                            </g>
                            <g id="s-link" transform="translate(59.998461, 118.770590) rotate(144.000000) translate(-59.998461, -118.770590) translate(23.998461, 85.270590)">
                                <g id="s" transform="translate(0.000000, 0.000000)">
                                    <g id="c" transform="translate(20.021028, -0.000000)">
                                        <polygon id="t" transform="translate(18.437964, 17.483051) rotate(18.000000) translate(-18.437964, -17.483051) " points="10.5349269 1.66937126 10.5349269 33.2967298 26.3410016 33.2967298"></polygon>
                                        <g id="t-link" transform="translate(13.343458, 17.500000) scale(-1, 1) translate(-13.343458, -17.500000) translate(0.343458, 0.000000)">
                                            <polygon id="t" transform="translate(13.169273, 17.483051) rotate(18.000000) translate(-13.169273, -17.483051) " points="5.26623528 1.66937126 5.26623528 33.2967298 21.07231 33.2967298"></polygon>
                                        </g>
                                    </g>
                                    <g id="a" transform="translate(21.021028, 6.325472)">
                                        <g id="c-link" transform="translate(28.141141, 20.645199) rotate(72.000000) translate(-28.141141, -20.645199) translate(12.641141, 3.145199)">
                                            <g id="c" transform="translate(-0.000000, 0.000000)">
                                                <polygon id="t" transform="translate(18.437964, 17.483051) rotate(18.000000) translate(-18.437964, -17.483051) " points="10.5349269 1.66937126 10.5349269 33.2967298 26.3410016 33.2967298"></polygon>
                                                <g id="t-link" transform="translate(13.343458, 17.500000) scale(-1, 1) translate(-13.343458, -17.500000) translate(0.343458, 0.000000)">
                                                    <polygon id="t" transform="translate(13.169273, 17.483051) rotate(18.000000) translate(-13.169273, -17.483051) " points="5.26623528 1.66937126 5.26623528 33.2967298 21.07231 33.2967298"></polygon>
                                                </g>
                                            </g>
                                        </g>
                                        <g id="c-link" transform="translate(23.353674, 36.551254) rotate(144.000000) translate(-23.353674, -36.551254) translate(7.853674, 19.051254)">
                                            <g id="c" transform="translate(-0.000000, 0.000000)">
                                                <polygon id="t" transform="translate(18.437964, 17.483051) rotate(18.000000) translate(-18.437964, -17.483051) " points="10.5349269 1.66937126 10.5349269 33.2967298 26.3410016 33.2967298"></polygon>
                                                <g id="t-link" transform="translate(13.343458, 17.500000) scale(-1, 1) translate(-13.343458, -17.500000) translate(0.343458, 0.000000)">
                                                    <polygon id="t" transform="translate(13.169273, 17.483051) rotate(18.000000) translate(-13.169273, -17.483051) " points="5.26623528 1.66937126 5.26623528 33.2967298 21.07231 33.2967298"></polygon>
                                                </g>
                                            </g>
                                        </g>
                                    </g>
                                    <g id="a-link" transform="translate(25.633178, 36.325472) scale(-1, 1) translate(-25.633178, -36.325472) translate(0.633178, 6.325472)">
                                        <g id="a" transform="translate(0.000000, -0.000000)">
                                            <g id="c-link" transform="translate(28.141141, 20.645199) rotate(72.000000) translate(-28.141141, -20.645199) translate(12.641141, 3.145199)">
                                                <g id="c" transform="translate(0.000000, 0.000000)">
                                                    <polygon id="t" transform="translate(18.437964, 17.483051) rotate(18.000000) translate(-18.437964, -17.483051) " points="10.5349269 1.66937126 10.5349269 33.2967298 26.3410016 33.2967298"></polygon>
                                                    <g id="t-link" transform="translate(13.343458, 17.500000) scale(-1, 1) translate(-13.343458, -17.500000) translate(0.343458, 0.000000)">
                                                        <polygon id="t" transform="translate(13.169273, 17.483051) rotate(18.000000) translate(-13.169273, -17.483051) " points="5.26623528 1.66937126 5.26623528 33.2967298 21.07231 33.2967298"></polygon>
                                                    </g>
                                                </g>
                                            </g>
                                            <g id="c-link" transform="translate(23.353674, 36.551254) rotate(144.000000) translate(-23.353674, -36.551254) translate(7.853674, 19.051254)">
                                                <g id="c" transform="translate(-0.000000, 0.000000)">
                                                    <polygon id="t" transform="translate(18.437964, 17.483051) rotate(18.000000) translate(-18.437964, -17.483051) " points="10.5349269 1.66937126 10.5349269 33.2967298 26.3410016 33.2967298"></polygon>
                                                    <g id="t-link" transform="translate(13.343458, 17.500000) scale(-1, 1) translate(-13.343458, -17.500000) translate(0.343458, 0.000000)">
                                                        <polygon id="t" transform="translate(13.169273, 17.483051) rotate(18.000000) translate(-13.169273, -17.483051) " points="5.26623528 1.66937126 5.26623528 33.2967298 21.07231 33.2967298"></polygon>
                                                    </g>
                                                </g>
                                            </g>
                                        </g>
                                    </g>
                                </g>
                            </g>
                            <g id="s-link" transform="translate(59.511857, 310.691226) rotate(72.000000) translate(-59.511857, -310.691226) translate(23.511857, 277.191226)">
                                <g id="s" transform="translate(0.000000, -0.000000)">
                                    <g id="c" transform="translate(20.021028, 0.000000)">
                                        <polygon id="t" transform="translate(18.437964, 17.483051) rotate(18.000000) translate(-18.437964, -17.483051) " points="10.5349269 1.66937126 10.5349269 33.2967298 26.3410016 33.2967298"></polygon>
                                        <g id="t-link" transform="translate(13.343458, 17.500000) scale(-1, 1) translate(-13.343458, -17.500000) translate(0.343458, 0.000000)">
                                            <polygon id="t" transform="translate(13.169273, 17.483051) rotate(18.000000) translate(-13.169273, -17.483051) " points="5.26623528 1.66937126 5.26623528 33.2967298 21.07231 33.2967298"></polygon>
                                        </g>
                                    </g>
                                    <g id="a" transform="translate(21.021028, 6.325472)">
                                        <g id="c-link" transform="translate(28.141141, 20.645199) rotate(72.000000) translate(-28.141141, -20.645199) translate(12.641141, 3.145199)">
                                            <g id="c" transform="translate(0.000000, 0.000000)">
                                                <polygon id="t" transform="translate(18.437964, 17.483051) rotate(18.000000) translate(-18.437964, -17.483051) " points="10.5349269 1.66937126 10.5349269 33.2967298 26.3410016 33.2967298"></polygon>
                                                <g id="t-link" transform="translate(13.343458, 17.500000) scale(-1, 1) translate(-13.343458, -17.500000) translate(0.343458, 0.000000)">
                                                    <polygon id="t" transform="translate(13.169273, 17.483051) rotate(18.000000) translate(-13.169273, -17.483051) " points="5.26623528 1.66937126 5.26623528 33.2967298 21.07231 33.2967298"></polygon>
                                                </g>
                                            </g>
                                        </g>
                                        <g id="c-link" transform="translate(23.353674, 36.551254) rotate(144.000000) translate(-23.353674, -36.551254) translate(7.853674, 19.051254)">
                                            <g id="c" transform="translate(0.000000, 0.000000)">
                                                <polygon id="t" transform="translate(18.437964, 17.483051) rotate(18.000000) translate(-18.437964, -17.483051) " points="10.5349269 1.66937126 10.5349269 33.2967298 26.3410016 33.2967298"></polygon>
                                                <g id="t-link" transform="translate(13.343458, 17.500000) scale(-1, 1) translate(-13.343458, -17.500000) translate(0.343458, 0.000000)">
                                                    <polygon id="t" transform="translate(13.169273, 17.483051) rotate(18.000000) translate(-13.169273, -17.483051) " points="5.26623528 1.66937126 5.26623528 33.2967298 21.07231 33.2967298"></polygon>
                                                </g>
                                            </g>
                                        </g>
                                    </g>
                                    <g id="a-link" transform="translate(25.633178, 36.325472) scale(-1, 1) translate(-25.633178, -36.325472) translate(0.633178, 6.325472)">
                                        <g id="a" transform="translate(0.000000, -0.000000)">
                                            <g id="c-link" transform="translate(28.141141, 20.645199) rotate(72.000000) translate(-28.141141, -20.645199) translate(12.641141, 3.145199)">
                                                <g id="c" transform="translate(0.000000, 0.000000)">
                                                    <polygon id="t" transform="translate(18.437964, 17.483051) rotate(18.000000) translate(-18.437964, -17.483051) " points="10.5349269 1.66937126 10.5349269 33.2967298 26.3410016 33.2967298"></polygon>
                                                    <g id="t-link" transform="translate(13.343458, 17.500000) scale(-1, 1) translate(-13.343458, -17.500000) translate(0.343458, 0.000000)">
                                                        <polygon id="t" transform="translate(13.169273, 17.483051) rotate(18.000000) translate(-13.169273, -17.483051) " points="5.26623528 1.66937126 5.26623528 33.2967298 21.07231 33.2967298"></polygon>
                                                    </g>
                                                </g>
                                            </g>
                                            <g id="c-link" transform="translate(23.353674, 36.551254) rotate(144.000000) translate(-23.353674, -36.551254) translate(7.853674, 19.051254)">
                                                <g id="c" transform="translate(0.000000, 0.000000)">
                                                    <polygon id="t" transform="translate(18.437964, 17.483051) rotate(18.000000) translate(-18.437964, -17.483051) " points="10.5349269 1.66937126 10.5349269 33.2967298 26.3410016 33.2967298"></polygon>
                                                    <g id="t-link" transform="translate(13.343458, 17.500000) scale(-1, 1) translate(-13.343458, -17.500000) translate(0.343458, 0.000000)">
                                                        <polygon id="t" transform="translate(13.169273, 17.483051) rotate(18.000000) translate(-13.169273, -17.483051) " points="5.26623528 1.66937126 5.26623528 33.2967298 21.07231 33.2967298"></polygon>
                                                    </g>
                                                </g>
                                            </g>
                                        </g>
                                    </g>
                                </g>
                            </g>
                            <g id="s-link" transform="translate(128.936956, 380.149726) rotate(72.000000) translate(-128.936956, -380.149726) translate(92.936956, 346.649726)">
                                <g id="s" transform="translate(-0.000000, 0.000000)">
                                    <g id="c" transform="translate(20.021028, 0.000000)">
                                        <polygon id="t" transform="translate(18.437964, 17.483051) rotate(18.000000) translate(-18.437964, -17.483051) " points="10.5349269 1.66937126 10.5349269 33.2967298 26.3410016 33.2967298"></polygon>
                                        <g id="t-link" transform="translate(13.343458, 17.500000) scale(-1, 1) translate(-13.343458, -17.500000) translate(0.343458, 0.000000)">
                                            <polygon id="t" transform="translate(13.169273, 17.483051) rotate(18.000000) translate(-13.169273, -17.483051) " points="5.26623528 1.66937126 5.26623528 33.2967298 21.07231 33.2967298"></polygon>
                                        </g>
                                    </g>
                                    <g id="a" transform="translate(21.021028, 6.325472)">
                                        <g id="c-link" transform="translate(28.141141, 20.645199) rotate(72.000000) translate(-28.141141, -20.645199) translate(12.641141, 3.145199)">
                                            <g id="c" transform="translate(0.000000, 0.000000)">
                                                <polygon id="t" transform="translate(18.437964, 17.483051) rotate(18.000000) translate(-18.437964, -17.483051) " points="10.5349269 1.66937126 10.5349269 33.2967298 26.3410016 33.2967298"></polygon>
                                                <g id="t-link" transform="translate(13.343458, 17.500000) scale(-1, 1) translate(-13.343458, -17.500000) translate(0.343458, 0.000000)">
                                                    <polygon id="t" transform="translate(13.169273, 17.483051) rotate(18.000000) translate(-13.169273, -17.483051) " points="5.26623528 1.66937126 5.26623528 33.2967298 21.07231 33.2967298"></polygon>
                                                </g>
                                            </g>
                                        </g>
                                        <g id="c-link" transform="translate(23.353674, 36.551254) rotate(144.000000) translate(-23.353674, -36.551254) translate(7.853674, 19.051254)">
                                            <g id="c" transform="translate(0.000000, 0.000000)">
                                                <polygon id="t" transform="translate(18.437964, 17.483051) rotate(18.000000) translate(-18.437964, -17.483051) " points="10.5349269 1.66937126 10.5349269 33.2967298 26.3410016 33.2967298"></polygon>
                                                <g id="t-link" transform="translate(13.343458, 17.500000) scale(-1, 1) translate(-13.343458, -17.500000) translate(0.343458, 0.000000)">
                                                    <polygon id="t" transform="translate(13.169273, 17.483051) rotate(18.000000) translate(-13.169273, -17.483051) " points="5.26623528 1.66937126 5.26623528 33.2967298 21.07231 33.2967298"></polygon>
                                                </g>
                                            </g>
                                        </g>
                                    </g>
                                    <g id="a-link" transform="translate(25.633178, 36.325472) scale(-1, 1) translate(-25.633178, -36.325472) translate(0.633178, 6.325472)">
                                        <g id="a" transform="translate(-0.000000, -0.000000)">
                                            <g id="c-link" transform="translate(28.141141, 20.645199) rotate(72.000000) translate(-28.141141, -20.645199) translate(12.641141, 3.145199)">
                                                <g id="c" transform="translate(0.000000, 0.000000)">
                                                    <polygon id="t" transform="translate(18.437964, 17.483051) rotate(18.000000) translate(-18.437964, -17.483051) " points="10.5349269 1.66937126 10.5349269 33.2967298 26.3410016 33.2967298"></polygon>
                                                    <g id="t-link" transform="translate(13.343458, 17.500000) scale(-1, 1) translate(-13.343458, -17.500000) translate(0.343458, 0.000000)">
                                                        <polygon id="t" transform="translate(13.169273, 17.483051) rotate(18.000000) translate(-13.169273, -17.483051) " points="5.26623528 1.66937126 5.26623528 33.2967298 21.07231 33.2967298"></polygon>
                                                    </g>
                                                </g>
                                            </g>
                                            <g id="c-link" transform="translate(23.353674, 36.551254) rotate(144.000000) translate(-23.353674, -36.551254) translate(7.853674, 19.051254)">
                                                <g id="c" transform="translate(0.000000, 0.000000)">
                                                    <polygon id="t" transform="translate(18.437964, 17.483051) rotate(18.000000) translate(-18.437964, -17.483051) " points="10.5349269 1.66937126 10.5349269 33.2967298 26.3410016 33.2967298"></polygon>
                                                    <g id="t-link" transform="translate(13.343458, 17.500000) scale(-1, 1) translate(-13.343458, -17.500000) translate(0.343458, 0.000000)">
                                                        <polygon id="t" transform="translate(13.169273, 17.483051) rotate(18.000000) translate(-13.169273, -17.483051) " points="5.26623528 1.66937126 5.26623528 33.2967298 21.07231 33.2967298"></polygon>
                                                    </g>
                                                </g>
                                            </g>
                                        </g>
                                    </g>
                                </g>
                            </g>
                        </g>
                    </g>
                </g>
            </g>
            <text id="General-Data-Protect" font-family="Roboto-Light, Roboto" font-size="64" font-weight="300" fill="#FFFFFF">
                <tspan x="588" y="183">General</tspan>
                <tspan x="588" y="258">Data</tspan>
                <tspan x="588" y="333">Protection</tspan>
                <tspan x="588" y="408">Regulation</tspan>
            </text>
        </g>
    </g>
</svg>